<?xml version="1.0" encoding="UTF-8"?>
<svg width="100px" height="100px" viewBox="0 0 100 100" version="1.1" xmlns="http://www.w3.org/2000/svg" xmlns:xlink="http://www.w3.org/1999/xlink">
    <!-- Generator: Sketch 52.5 (67469) - http://www.bohemiancoding.com/sketch -->
    <title>personality/authentic</title>
    <desc>Created with Sketch.</desc>
    <defs>
        <rect id="path-1" x="0" y="0" width="100" height="100"></rect>
        <path d="M23.3661827,84.6282954 L9.61905626,71.9386402 C1.49219976,58.4739579 -0.507954083,51.9668347 0.10181488,44.4443874 C0.775306085,38.7442577 1.74690083,31.7818599 6.44664247,25.4099046 C11.7410272,18.0589605 15.2551352,15.977903 23.3661827,10.6053069 C30.7781993,4.5096504 42.3408628,2.6512284 48.745493,1.08806551 C64.5086552,-2.78114256 70.4406706,4.35857663 76.2397459,11.6627782 C82.6922799,19.1251904 86.5910192,21.7415265 88.9294011,30.6972609 C90.461256,38.8288678 92.4740794,44.8768456 92.1018149,51.8466862 C91.0854633,66.1149793 86.5216296,68.3319488 79.4121597,78.2834678 C75.4556628,83.2041189 72.7287372,86.5536876 64.607562,88.8581805 C55.0194802,90.7778544 48.488968,92.7806461 41.3431942,92.0305942 C36.4624429,90.945215 31.2645433,87.6714249 23.3661827,84.6282954 Z" id="path-3"></path>
        <path d="M79.1701663,49.7280498 C82.3104144,44.8439091 89.4372409,33.9234004 85.8256643,32.9808313 C82.2140878,32.0382622 76.5469458,37.0067122 73.904908,32.0382622 C71.2628702,27.0698121 78.016935,10.6366346 71.2628702,10.6366346 C64.5088054,10.6366346 63.5200013,14.9698654 59.5401435,13.28814 C55.5602856,11.6064147 51.3246021,0.444576229 46.8675914,1.82341256 C42.4105807,3.2022489 42.2156873,18.2659578 39.8590451,19.9151192 C37.5024029,21.5642806 29.5659847,15.7174971 26.3836218,21.5642806 C23.2012588,27.4110641 31.0704723,33.0910133 31.0704723,36.5186996 C31.0704723,39.9463859 20.8226631,39.9923323 20.8226631,43.4873768 C20.8226631,46.9824214 22.0381707,48.83678 32.5969133,55.0011732 C43.1556559,61.1655664 52.2562455,62.3717694 53.2574071,69.9948474 C54.2585687,77.6179254 63.035232,63.2269066 67.1490511,59.7282934 C71.2628702,56.2296802 76.0299182,54.6121906 79.1701663,49.7280498 Z" id="path-5"></path>
    </defs>
    <g id="personality/authentic" stroke="none" stroke-width="1" fill="none" fill-rule="evenodd">
        <g id="tab02-illu-icon02">
            <mask id="mask-2" fill="white">
                <use xlink:href="#path-1"></use>
            </mask>
            <g id="Mask"></g>
            <g id="Group-10" mask="url(#mask-2)">
                <g transform="translate(4.000000, 3.000000)">
                    <mask id="mask-4" fill="white">
                        <use xlink:href="#path-3"></use>
                    </mask>
                    <use id="Mask" stroke="none" fill="#202637" fill-rule="evenodd" xlink:href="#path-3"></use>
                    <mask id="mask-6" fill="white">
                        <use xlink:href="#path-5"></use>
                    </mask>
                    <use id="Mask" stroke="none" fill="#343A4B" fill-rule="evenodd" transform="translate(53.822663, 36.948442) rotate(61.000000) translate(-53.822663, -36.948442) " xlink:href="#path-5"></use>
                </g>
            </g>
        </g>
        <g id="blueprint" transform="translate(50.000000, 47.112884) rotate(83.000000) translate(-50.000000, -47.112884) translate(18.000000, 19.612884)">
            <path d="M0,5.57971014 C7.55822146,6.2029646 12.8257112,6.51459183 15.8024691,6.51459183 C25.4276274,6.51459183 31.932257,5.57971014 37.5308642,5.57971014 C41.5532226,5.57971014 45.5074407,6.51459183 49.7685185,6.51459183 C52.7159483,6.51459183 57.3280886,6.2029646 63.6049393,5.57971014 L63.6049356,49.0944666 C63.6049356,51.7656207 61.5619159,53.9930433 58.9007047,54.2233014 C55.4781593,54.519433 53.2566281,54.686998 52.2361111,54.7259964 C44.8190958,55.0094325 38.9292566,54.7259964 35.5555556,54.7259964 C28.7842078,54.7259964 22.5738169,53.8043478 15.8024691,53.8043478 C6.06052812,53.8043478 0.793038409,53.8043478 0,53.8043478 C0,48.6918546 0,45.0112283 0,42.7624689 C0,40.0205376 0,36.2763403 0,34.6217589 C0,28.8639852 0,23.8994858 0,20.1548347 C0,17.5098564 0,14.3466195 0,12.3465099 C0,9.97736483 0,7.72176493 0,5.57971014 Z" id="Rectangle-22" fill="#94A7E7"></path>
            <path d="M56.3537292,3.58695652 L57.2792693,3.58695652 C60.7785455,3.58695652 63.6152693,6.42368035 63.6152693,9.92295652 L63.6152693,48.6231884 C60.8921918,45.4861583 58.4716784,45.4861583 56.3537292,48.6231884 C56.097988,46.2627948 56.2743163,42.6511502 56.3537292,38.6531929 C56.415789,35.5288623 56.3655308,32.3020847 56.3537292,28.3726081 C56.3396883,23.6975159 55.5699703,18.8959705 55.7380152,12.9490065 C55.7941511,10.962406 55.9993891,7.84172269 56.3537292,3.58695652 Z" id="Rectangle-23" fill="#7993EC"></path>
            <path d="M54.5288496,-8.19054969e-14 L57.2792693,0 C60.7785455,3.04370092e-14 63.6152693,2.83672383 63.6152693,6.336 L63.6152693,45.0362319 C60.2078619,41.8992018 57.1790553,41.8992018 54.5288496,45.0362319 C54.2088387,42.6758383 54.4294795,39.0641936 54.5288496,35.0662364 C54.6065054,31.9419058 54.5436169,28.7151281 54.5288496,24.7856516 C54.5112801,20.1105594 53.5481261,15.309014 53.758402,9.36204993 C53.8286453,7.37544948 54.0854611,4.25476617 54.5288496,-8.19054969e-14 Z" id="Rectangle-23" fill="#C0CDF5"></path>
        </g>
        <g id="Group-8" transform="translate(51.805162, 19.000000)">
            <path d="M10.4398148,18.5210718 C13.4389503,18.5210718 16.4603318,17.0841833 18.1603167,14.9170065 C19.1823857,13.6140512 19.6376296,12.0053434 19.6376296,9.88153595 C19.6376296,6.57700694 18.1885015,3.87714085 15.5871408,2.43332036 C14.2857324,1.71100608 12.234529,1.24200005 10.4398148,1.24200005 C7.8937481,1.24200005 5.45661029,1.95345977 3.96811863,3.18489248 C2.19982071,4.64780959 1.24200005,7.06969229 1.24200005,9.88153595 C1.24200005,11.4462095 1.99759031,13.0724227 3.4241045,14.926096 C5.22960939,17.2722459 7.56188557,18.5210718 10.4398148,18.5210718 Z" id="Oval-4" stroke="#FFDD0F" stroke-width="2.4840001" fill="#FFFFFF"></path>
            <polyline id="Path-47" stroke="#24272B" stroke-width="1.20000005" points="7.33333333 10.6738188 9.58111486 12.9457561 15.6625017 7.05882353"></polyline>
        </g>
        <path d="M28.4984212,53.565638 C28.5899227,53.1441154 28.8994961,52.8151221 29.2961371,52.7178806 L30.8968089,52.3250593 C30.9572724,52.3104945 31,52.2535204 31,52.1875504 C31,52.1215804 30.9572724,52.0646063 30.8968089,52.0496131 L29.2961371,51.6572201 C28.8994961,51.5599786 28.5899227,51.2309854 28.4984212,50.8098912 L28.1287874,49.1096644 C28.1150823,49.0454079 28.0614713,49 27.9993954,49 C27.9373194,49 27.8837084,49.0454079 27.8696003,49.1096644 L27.5003695,50.8098912 C27.408868,51.2314138 27.0992946,51.5599786 26.7030568,51.6572201 L25.1031911,52.0496131 C25.0427276,52.0646063 25,52.1215804 25,52.1875504 C25,52.2535204 25.0427276,52.3104945 25.1031911,52.3250593 L26.7030568,52.7178806 C27.0992946,52.8151221 27.408868,53.1441154 27.5003695,53.565638 L27.8696003,55.2667215 C27.8837084,55.330978 27.9373194,55.3763859 27.9993954,55.3763859 C28.0614713,55.3763859 28.1150823,55.330978 28.1287874,55.2667215 L28.4984212,53.565638 Z" id="Stroke-121-Copy" fill="#FFDD0F"></path>
        <path d="M37.6866548,60.1602284 C37.8353898,59.4991602 38.3385988,58.9832046 38.9833353,58.830702 L41.5852141,58.2146456 C41.6834972,58.1918038 41.7529505,58.1024521 41.7529505,57.9989923 C41.7529505,57.8955324 41.6834972,57.8061807 41.5852141,57.7826671 L38.9833353,57.1672825 C38.3385988,57.01478 37.8353898,56.4988243 37.6866548,55.8384279 L37.085818,53.1719852 C37.0635406,53.0712126 36.9763963,53 36.8754924,53 C36.7745885,53 36.6874443,53.0712126 36.6645116,53.1719852 L36.06433,55.8384279 C35.915595,56.4994961 35.412386,57.01478 34.7683047,57.1672825 L32.1677363,57.7826671 C32.0694533,57.8061807 32,57.8955324 32,57.9989923 C32,58.1024521 32.0694533,58.1918038 32.1677363,58.2146456 L34.7683047,58.830702 C35.412386,58.9832046 35.915595,59.4991602 36.06433,60.1602284 L36.6645116,62.8280148 C36.6874443,62.9287874 36.7745885,63 36.8754924,63 C36.9763963,63 37.0635406,62.9287874 37.085818,62.8280148 L37.6866548,60.1602284 Z" id="Stroke-121-Copy" fill="#FFDD0F"></path>
    </g>
</svg>