<?xml version="1.0" encoding="UTF-8"?>
<svg width="100px" height="100px" viewBox="0 0 100 100" version="1.1" xmlns="http://www.w3.org/2000/svg" xmlns:xlink="http://www.w3.org/1999/xlink">
    <!-- Generator: Sketch 52.5 (67469) - http://www.bohemiancoding.com/sketch -->
    <title>personality/creative</title>
    <desc>Created with Sketch.</desc>
    <defs>
        <path d="M23.995414,84.8661055 L10.2482876,72.1764503 C2.12143109,58.711768 0.12127725,52.2046448 0.731046213,44.6821974 C1.40453742,38.9820678 2.37613216,32.01967 7.0758738,25.6477147 C12.3702585,18.2967706 15.8843665,16.2157131 23.995414,10.843117 C31.4074306,4.74746049 42.9700942,2.8890385 49.3747244,1.32587561 C65.1378866,-2.54333246 71.0699019,4.59638673 76.8689772,11.9005883 C83.3215113,19.3630005 87.2202505,21.9793366 89.5586324,30.935071 C91.0904873,39.0666779 93.1033108,45.1146557 92.7310462,52.0844963 C91.7146947,66.3527894 87.150861,68.5697589 80.041391,78.5212779 C76.0848941,83.441929 73.3579685,86.7914977 65.2367933,89.0959905 C55.6487116,91.0156645 49.1181993,93.0184562 41.9724255,92.2684043 C37.0916742,91.1830251 31.8937746,87.909235 23.995414,84.8661055 Z" id="path-1"></path>
        <path d="M24.2304392,56.502753 C24.2304392,53.1941283 32.5913547,47.9350292 37.7918389,46.274997 C42.992323,44.6149647 59.9082561,15.6203281 33.804823,2.9412916 C7.70138991,-9.73774486 -5.56423509,21.9820902 2.20843217,33.4440663 C9.98109942,44.9060423 11.0770501,54.0152468 10.5290748,56.502753 C9.98109942,58.9902592 15.779735,65.557301 19.3917508,62.8943856 C23.0037667,60.2314702 24.2304392,59.8113778 24.2304392,56.502753 Z" id="path-3"></path>
        <path d="M18.8204853,7.47938937 C18.6728909,7.79996197 18.7261096,8.15587113 19.1002451,8.56835938 C20.4087838,10.0110367 22.446856,11.3952443 20.1796905,13.2669116 C17.912525,15.1385789 20.2879652,18.0544395 19.1002451,19.2257409 C17.912525,20.3970424 12.100025,21.1342696 7.32405673,19.2257409 C6.4573026,18.8793766 5.61503292,18.4624712 4.82895987,18.0120364 C4.91219277,17.9644055 4.99324231,17.9168804 5.07174296,17.8694971 C8.23679577,15.9590619 11.4335387,18.7185795 15.28125,17.8694971 C19.1289613,17.0204148 11.4335387,16.9727493 5.9412412,16.1128627 C2.20220228,15.5274703 3.389155,13.2979648 5.9412412,12.8105934 C7.13793029,12.5820619 11.3617114,14.3289028 12.8506851,14.257084 C17.5150777,14.0321026 15.28125,14.0473555 18.1399648,12.8105934 C20.9986796,11.5738312 18.5691021,10.9700676 15.28125,10.9700676 C11.9933979,10.9700676 6.54797535,11.2477989 7.10387324,8.86515687 C7.65977113,6.48251488 9.25847561,8.86515687 12.8506851,8.86515687 C16.0991866,8.86515687 16.5452546,7.70197864 18.8204853,7.47938937 Z" id="path-5"></path>
    </defs>
    <g id="personality/creative" stroke="none" stroke-width="1" fill="none" fill-rule="evenodd">
        <g id="illustation" transform="translate(2.598802, 2.197605)">
            <g id="Group-2" transform="translate(0.771966, 0.564585)">
                <mask id="mask-2" fill="white">
                    <use xlink:href="#path-1"></use>
                </mask>
                <use id="Mask" fill="#202637" xlink:href="#path-1"></use>
                <path d="M19.2527585,64.0676505 C17.189253,64.0676505 14.9964917,63.890237 13.3972773,63.0574966 C11.6996648,62.1735185 10.6286294,60.5888224 9.5854703,59.0383637 C8.55444106,57.5059336 7.62923133,55.7163503 7.62923133,53.8047877 C7.62923133,50.7116382 8.84736945,47.9419387 11.3001573,46.0634296 C12.8650291,44.8649461 15.129996,44.0292132 17.260021,43.7036675 C16.6221219,42.2709719 16.2594678,40.7167639 16.2594678,39.0837372 C16.2594678,36.9756855 16.8436615,34.3931971 17.8769094,32.6454998 C19.1826291,30.4369271 21.2054651,29.3839298 23.672696,28.3433062 C25.7210401,27.4793598 28.0756899,26.4390691 30.5805832,26.4390691 C32.6477113,26.4390691 34.606973,27.7264149 36.3811882,28.4218265 C37.3122457,26.9592192 38.4654544,25.3241266 39.8004761,24.14736 C41.3687374,22.7650024 43.1878896,20.9041974 45.1925431,19.9017749 C47.949414,18.5232078 51.0571185,18.2378101 54.345582,18.2378101 C58.2705926,18.2378101 61.6061198,19.8022151 64.7279877,21.4847509 C67.9637192,23.2286536 71.710829,25.2636901 73.5384853,28.0931647 C75.0574896,30.4448016 74.9415423,33.4371976 74.9415423,36.4227821 C74.9415423,37.2889677 74.8680816,38.1395538 74.7351084,38.9737193 C77.5247203,39.3950271 80.0395657,41.4186325 82.0304976,43.0420665 C84.8583444,45.3479326 86.6292313,47.7544676 86.6292313,51.4229824 C86.6292313,54.4187968 86.1155766,58.3613666 84.1435359,60.5280971 C81.5190072,63.4117324 76.8252212,64.0676505 72.3090458,64.0676505 C66.2571393,63.8693326 61.7182094,63.7701736 58.6922561,63.7701736 C55.6002218,63.7701736 51.3395544,64.1243083 45.910254,64.237624 C45.4821394,64.2465592 41.9492928,63.9310392 35.3117141,63.8860178 C33.4947068,63.8736934 30.5565881,63.8956752 26.4973581,63.9519633 C25.0896827,63.9714831 22.6748162,64.0100455 19.2527585,64.0676505 Z" id="Fill-1" fill="#343A4B" mask="url(#mask-2)"></path>
            </g>
        </g>
        <g id="pencil-copy-2" transform="translate(27.764512, 37.816058) scale(-1, 1) rotate(-248.000000) translate(-27.764512, -37.816058) translate(-3.735488, 26.316058)">
            <path d="M29.7981748,-18.79167 C29.7981748,-17.2817342 29.854756,3.66567318 29.854756,7.82911127 C29.854756,9.6906764 29.3433532,19.9682855 29.4050239,20.3046149 C29.4050239,20.3046149 28.9759205,20.3526033 28.8847406,20.8387024 C28.5251453,22.7557794 29.6149227,28.1378665 29.6461426,29.6269614 C27.1347809,31.1200334 27.2363202,32.4209655 27.0042119,33.2486607 C26.4800263,35.1178991 28.4508082,37.075685 25.7207727,41.9346602 C35.3032738,43.0593693 38.8091109,33.5231729 32.8496634,29.6782626 C32.3091517,29.3295358 34.4467295,23.3467475 34.4467295,21.5304601 C34.5290993,20.996314 34.0760737,21.0226018 34.0839295,20.8736335 C34.2896833,16.971954 34.9153757,13.135574 34.9153757,9.1156986 C34.9153757,7.20646132 37.3755217,-18.732949 36.8478034,-19.0293984 C34.8709527,-20.1399082 29.7981748,-19.3261555 29.7981748,-18.79167 Z" id="Mask" fill="#E6BD00" transform="translate(31.321388, 11.221366) rotate(280.000000) translate(-31.321388, -11.221366) "></path>
            <path d="M7.03184559,1.43155225 C7.58504347,1.56622813 8.17498851,1.71217043 8.79370188,1.86705218 L7.49660114,8.55359828 C6.89270805,8.44861129 6.31754975,8.3486138 5.77895236,8.25496058 C5.85272898,7.84836507 5.93244351,7.39547791 6.00850237,6.93641145 C6.30810845,5.12808686 6.34090787,4.85868785 6.37406442,4.41132902 C6.41655958,3.83797056 6.92246205,2.8686637 6.96928681,2.09206083 C6.98404001,1.84737454 7.00489294,1.62720502 7.03184559,1.43155225 Z" id="Path" fill="#F6E8A6"></path>
            <path d="M1.22281723,6.52777455 C1.24290545,6.3771575 1.26214993,6.22424999 1.2800905,6.07048811 C1.49364032,4.2402338 1.49349672,3.9636546 1.43571695,3.49732666 C1.36166337,2.8996564 2.40854741,2.03276736 2.27925842,1.21968549 C2.26073717,1.10320771 2.24728981,0.992554234 2.23891634,0.887725068 C2.31749966,0.755537004 2.4010861,0.63427275 2.48985282,0.525919055 C2.59203287,0.401192303 4.44937576,0.801237606 7.15508043,1.4615916 L5.83535496,8.26476801 C3.52909726,7.86375159 1.88197215,7.57711377 1.49981448,7.50972906 C1.36014144,7.48510094 1.26312817,7.10529721 1.22281723,6.52777455 Z" id="Path" fill="#47505E"></path>
            <path d="M46.1812187,11.6229901 C47.924249,12.4298022 49.5351896,13.1673622 49.7632653,12.921315 C54.58461,7.72006646 63.367148,12.8285852 60.5955418,22.0702028 C56.284451,18.5378905 54.0141856,20.1387658 52.264369,19.297954 C51.4895536,18.9256441 50.1907534,18.7997364 49.156458,16.0672587 C48.3908316,15.9487481 46.5381421,15.9293921 44.6795238,15.8414096 C44.8785144,14.230449 45.3790794,12.8243091 46.1812187,11.6229901 Z" id="Path" fill="#D8DADF"></path>
            <path d="M56.6564124,11.3114378 C59.8434785,12.6253415 62.1989283,16.5932526 60.6220404,21.9807715 C60.591867,21.9925506 60.561306,22.004646 60.5303574,22.0170578 C58.2327569,20.1531489 56.5181981,19.7503023 55.1532019,19.6452689 C55.3340671,19.2237556 57.4655711,19.3390497 57.9108114,19.0088481 C58.9387593,18.2464957 54.5723594,17.1870681 55.2248518,15.5355164 C55.8773442,13.8839648 57.9142359,16.0180435 57.9157492,14.6964112 C57.9166819,13.8817829 56.6180199,14.4895932 56.6214374,11.5049322 C56.6215179,11.4346662 56.6337209,11.3703382 56.6564124,11.3114378 Z" id="Path" fill="#597EFE"></path>
            <path d="M41.3152373,10.1783255 C41.4543322,10.1929301 41.5149569,9.76322426 42.0165739,9.93366079 C43.7673607,10.2423717 49.0936569,13.2610701 49.728698,12.946497 C49.5520145,13.2119539 48.7787011,14.4959751 49.180715,16.0924305 C49.1890263,16.1254361 49.1967015,16.1579396 49.2037571,16.1899476 C49.1879316,16.1496457 49.1721643,16.1087528 49.156458,16.0672587 C47.6845645,15.8394256 42.1950055,15.9780573 40.3694963,15.2910281 C39.9066154,15.1168232 39.933869,14.6859058 39.933869,14.6859058 C39.9254201,14.6859634 39.9110542,14.6846224 39.8910415,14.681947 C40.1784428,12.6536671 40.6531747,11.1524599 41.3152373,10.1783255 Z" id="Path" fill="#B7BAC2"></path>
            <path d="M40.5480983,11.7761489 C40.6820357,11.3880157 40.8295943,11.0382071 40.9907741,10.7267232 C42.9791426,11.0332998 46.5109675,12.2963496 46.7377356,12.5004326 C46.9899794,12.7274428 47.2352287,13.2353538 46.1064825,12.9824371 C45.2761213,12.7963791 42.3698257,12.0180018 41.320268,11.8329365 C41.1028943,11.7946076 40.8294125,11.7788914 40.5480983,11.7761489 Z" id="Path" fill="#FFFFFF"></path>
            <path d="M48.4412161,11.6018141 C48.4001024,11.3775945 47.8768199,11.1360497 47.7375,11.4899455 C47.7375,11.4899455 47.5927848,11.8447561 47.7161261,12.517415 C47.7553003,12.7310568 47.762598,12.9388897 47.9959294,12.899326 C48.5894252,12.7986927 48.4412161,11.6018141 48.4412161,11.6018141 Z" id="Mask-Copy" fill="#FFFFFF" transform="translate(48.883996, 12.481532) rotate(280.000000) translate(-48.883996, -12.481532) "></path>
        </g>
        <g id="Group-35" transform="translate(73.000000, 45.000000) rotate(-5.000000) translate(-73.000000, -45.000000) translate(49.000000, 7.000000)">
            <g id="Group-34">
                <mask id="mask-4" fill="white">
                    <use xlink:href="#path-3"></use>
                </mask>
                <use id="Mask" fill="#C0CDF5" xlink:href="#path-3"></use>
                <path d="M30.4707306,0.455682664 C31.5330106,5.61118862 30.3347271,2.82307168 32.7260123,8.63890439 C35.1172975,14.4547371 37.1018926,16.4865606 35.7484595,21.1654111 C34.3950264,25.8442615 32.4995599,35.2089534 27.7117077,38.6764633 C22.9238556,42.1439732 23.7768486,45.070638 22.5508363,47.9146825 C21.3248239,50.7587271 15.1201585,57.1382844 15.1201585,60.750062 C15.1201585,64.3618397 19.1797975,63.8737444 20.8653169,58.305137 C22.5508363,52.7365296 33.5677817,45.7557509 35.7484595,42.6695654 C37.9291373,39.5833798 45.7447183,25.7819785 43.7733275,21.1654111 C42.6509365,18.5370161 42.9514063,16.1046326 41.6619718,13.7619978 C40.6866168,11.9899801 37.9291373,10.2463572 37.9291373,8.63890439 C37.9291373,4.90637401 29.4084507,-4.69982329 30.4707306,0.455682664 Z" id="Path-12" fill="#FFFFFF" mask="url(#mask-4)"></path>
                <path d="M15.5492958,58.4268416 C19.6214789,49.9101728 21.6575704,43.9774006 21.6575704,40.628525 C21.6575704,35.6052115 23.5490757,23.0577319 25.474912,24.7520834 C27.4007482,26.4464348 28.3151408,26.8099641 26.8950264,27.8706815 C25.474912,28.9313988 19.8882042,29.2764974 18.759243,25.9780413 C17.6302817,22.6795852 20.2929137,16.3667597 31.3164613,23.2852555 C42.3400088,30.2037513 26.8560739,39.1623326 18.759243,37.4056982 C10.662412,35.6490638 20.1172975,29.7359933 24.3670775,33.5708458 C28.6168574,37.4056982 29.974912,43.6047619 24.3670775,44.9254155 C18.759243,46.246069 15.5492958,44.825 15.5492958,43.7954241 C15.5492958,42.7658482 19.087368,39.8360057 22.9911972,42.3807106 C26.8950264,44.9254155 25.8320863,46.9515191 22.9911972,48.9928758 C20.1503081,51.0342324 17.3681778,53.5249163 18.759243,54.6943112" id="Path-14" stroke="#24272B" stroke-width="1.30562155" stroke-linejoin="round" mask="url(#mask-4)"></path>
            </g>
            <g id="Group-31" transform="translate(4.056338, 53.690476)">
                <path d="M3.65658314,0 C5.0958437,0 7.02167997,1.0359313 8.66296518,3.03915551 C10.3042504,5.04237971 15.9351923,6.07831101 19.1002451,3.03915551 C22.2652979,0 23.2173226,4.44052269 21.8130532,5.4078156 C20.4087838,6.37510851 17.7917064,7.12568204 19.1002451,8.56835938 C20.4087838,10.0110367 22.446856,11.3952443 20.1796905,13.2669116 C17.912525,15.1385789 20.2879652,18.0544395 19.1002451,19.2257409 C17.912525,20.3970424 12.100025,21.1342696 7.32405673,19.2257409 C2.54808842,17.3172123 -1.484482,13.2669116 0.531803207,13.2669116 C2.54808842,13.2669116 4.76507785,11.8284163 3.65658314,10.1983878 C2.54808842,8.56835938 2.09848454,7.02844432 3.65658314,7.02844432 C5.21468173,7.02844432 6.47832609,7.77647569 5.06745462,5.4078156 C3.65658314,3.03915551 2.21732257,0 3.65658314,0 Z" id="Mask" fill="#94A7E7"></path>
                <mask id="mask-6" fill="white">
                    <use xlink:href="#path-5"></use>
                </mask>
                <use id="Combined-Shape" fill="#7993EC" xlink:href="#path-5"></use>
            </g>
        </g>
    </g>
</svg>