<?xml version="1.0" encoding="UTF-8"?>
<svg width="100px" height="100px" viewBox="0 0 100 100" version="1.1" xmlns="http://www.w3.org/2000/svg" xmlns:xlink="http://www.w3.org/1999/xlink">
    <!-- Generator: Sketch 52.5 (67469) - http://www.bohemiancoding.com/sketch -->
    <title>personality/funny</title>
    <desc>Created with Sketch.</desc>
    <defs>
        <path d="M29.3661827,84.6282954 L15.6190563,71.9386402 C7.49219976,58.4739579 5.49204592,51.9668347 6.10181488,44.4443874 C6.77530608,38.7442577 7.74690083,31.7818599 12.4466425,25.4099046 C17.7410272,18.0589605 21.2551352,15.977903 29.3661827,10.6053069 C36.7781993,4.5096504 48.3408628,2.6512284 54.745493,1.08806551 C70.5086552,-2.78114256 76.4406706,4.35857663 82.2397459,11.6627782 C88.6922799,19.1251904 92.5910192,21.7415265 94.9294011,30.6972609 C96.461256,38.8288678 98.4740794,44.8768456 98.1018149,51.8466862 C97.0854633,66.1149793 92.5216296,68.3319488 85.4121597,78.2834678 C81.4556628,83.2041189 78.7287372,86.5536876 70.607562,88.8581805 C61.0194802,90.7778544 54.488968,92.7806461 47.3431942,92.0305942 C42.4624429,90.945215 37.2645433,87.6714249 29.3661827,84.6282954 Z" id="path-1"></path>
        <path d="M7.68879633,0 C5.14883587,1.15629619 -0.0343022025,2.84244782 0.000171111109,4.25836452 C0.80739367,37.9211505 9.04401446,71.4200444 9.85123702,105.083499 C12.2279419,105.086844 14.6046468,105.090858 16.9813517,105.094871 C17.0249094,94.3335098 23.2979209,83.8223347 25.4582424,73.2589816 C30.3106346,49.5316915 37.4540518,24.236511 37.5655327,0 C37.5655327,0 7.68879633,0 7.68879633,0 Z" id="path-3"></path>
    </defs>
    <g id="personality/funny" stroke="none" stroke-width="1" fill="none" fill-rule="evenodd">
        <g id="tab02-illu-icon02" transform="translate(-2.000000, 3.000000)">
            <g id="Group-10">
                <mask id="mask-2" fill="white">
                    <use xlink:href="#path-1"></use>
                </mask>
                <use id="Mask" fill="#202637" xlink:href="#path-1"></use>
                <g id="Group-19" mask="url(#mask-2)">
                    <g transform="translate(8.000000, 47.000000)">
                        <path d="M23.4337532,0.342078956 C27.236047,0.755782668 24.1218703,6.16227748 27.2061197,6.16227748 C28.9305458,6.16227748 34.717891,4.30279332 65.5666401,5.23340074 C68.3564302,5.31755972 74.9240556,3.30585703 76.9332281,3.30585703 C77.1169164,3.96203405 77.0838443,2.47619413 77.5517201,6.15341241 C78.0195959,9.83063069 73.705286,11.9025102 74.409116,13.8885593 C77.5076544,22.6319341 84.2427957,53.6894695 85.2859559,68.7862389 C85.3473018,69.6740462 85.2264266,87.0047425 84.0567438,94.6389513 C81.7849526,109.466329 68.6492491,131.311445 54.0389076,133.08743 C49.9508248,133.584364 46.3977201,134.062736 43.3795937,134.522545 C26.2184134,134.522545 -0.0496547819,115.272351 7.04937165e-05,96.2598017 C0.149914584,86.6176614 0.984954245,77.5617945 3.07805726,63.840534 C5.17116027,50.1192735 14.3414141,18.5731242 15.929276,14.2604852 C16.4585943,12.822855 15.1511228,11.8408968 13.6909285,8.45915149 C12.1327041,4.85037272 15.2889565,-0.310802624 23.4337532,0.342078956 Z" id="Mask" fill="#697079"></path>
                        <path d="M25.574478,3.17460636 C25.6770274,4.65727267 25.5788463,6.16227748 27.2061197,6.16227748 C28.9305458,6.16227748 34.717891,4.30279332 65.5666401,5.23340074 C67.6382685,5.2958951 71.793062,4.20269434 74.6175692,3.6357186 C76.0539795,3.81402636 76.8580303,4.02007587 77.2833396,4.24832259 C77.3311593,4.53123344 77.3896755,4.92515469 77.4632466,5.47444891 C77.3722906,5.66146474 77.2908099,5.85428531 77.2908099,6.05133644 C77.2908099,7.04221934 72.8590632,8.62114113 65.9479168,9.19791098 C60.7383316,9.632677 54.1242452,9.19791098 46.913358,9.19791098 C39.2504385,9.19791098 35.6965459,9.66779338 30.3522989,9.18287929 C26.7543071,8.8564129 22.4273501,9.061272 16.9603662,8.64257269 C14.7314511,8.47186701 13.7679345,8.18884037 13.448961,7.74598047 C13.3978305,7.54286655 13.3603782,7.33663404 13.3366466,7.12842772 C13.6616449,4.94991818 11.8521503,3.6872627 25.574478,3.17460636 Z" id="Combined-Shape" fill="#47505E"></path>
                        <path d="M74.3772257,13 C75.7598895,16.0580587 77.8469833,22.7581405 78,27.8310547 C77.9441427,28.2740596 75.6405445,27.8431817 71.5655327,24.5729837 C69.7141392,23.0872399 66.9557285,20.5875745 66.3824502,20.9005959 C65.5225327,21.370128 65.6903247,34.0633448 63.7149121,33.964409 C62.4352772,34.1023768 53.8563666,21.4598183 52.5023429,21.5262563 C50.4634576,21.7984208 46.5094769,32.7609655 44.6934207,32.7432394 C43.3233602,32.6502123 38.9515272,22.2524859 37.8469483,22.1266483 C36.8645314,22.0462553 27.1010167,32.5361223 25.9114702,32.4006048 C24.578604,32.3433426 26.2845454,18.5709563 24.6752814,18.1038745 C22.9387348,17.8745131 12.6900404,25.9359622 13,24.5729837 C13.1747185,23.8046979 13.722617,21.1123348 14.9306218,17.08831 C15.3563492,15.6701552 16.0911907,13.5948505 16.5211495,13.3600844 C17.0681496,13.4539283 29.1768777,16.0945036 43.6309382,16.1647824 C58.0849986,16.2350612 69.8387724,15.4780862 74.3772257,13 Z" id="Path-51" fill="#B7BAC2"></path>
                    </g>
                </g>
                <g id="Fill-167-Copy-2" mask="url(#mask-2)">
                    <g transform="translate(42.000000, -61.000000)">
                        <mask id="mask-4" fill="white">
                            <use xlink:href="#path-3"></use>
                        </mask>
                        <use id="Mask" stroke="none" fill="#FFDD0F" fill-rule="evenodd" xlink:href="#path-3"></use>
                        <path d="M0.688796329,0 C-1.85116413,1.15629619 -7.0343022,2.84244782 -6.99982889,4.25836452 C-6.19260633,37.9211505 2.04401446,71.4200444 2.85123702,105.083499 C5.22794191,105.086844 7.6046468,105.090858 9.98135168,105.094871 C10.0249094,94.3335098 16.2979209,83.8223347 18.4582424,73.2589816 C23.3106346,49.5316915 30.4540518,24.236511 30.5655327,0 C30.5655327,0 0.688796329,0 0.688796329,0 Z" id="Fill-167-Copy-3" stroke="none" fill="#E6BD00" fill-rule="evenodd" mask="url(#mask-4)"></path>
                    </g>
                </g>
                <path d="M34,-62.9254804 C34.8072226,-27.9328885 42.9107474,7.16428255 43.71797,42.1575697 C46.0946749,42.1610466 48.4713797,42.1652188 50.8480846,42.1693911 C50.8916423,30.9829155 57.1646539,20.0565096 59.3249753,9.07586465 C63.9076223,-14.2176328 71.3500839,-39.1084228 71.3500839,-62.9254804 C71.3500839,-63.0931496 34,-62.9254804 34,-62.9254804 Z" id="Mask" fill="#FFDD0F" mask="url(#mask-2)"></path>
                <g id="Group-12" transform="translate(47.478261, 31.000000)">
                    <g id="mouse" transform="translate(0.568087, 0.000000)">
                        <path d="M20.7575604,23.9517986 C12.8377775,24.9289451 7.05784677,23.2965466 3.36357635,22.5886988 C-1.2446169,21.7057371 0.221807556,19.3380454 0.221807556,18.2408428 C0.221807556,16.2640409 12.0484565,15.5987565 25.0314511,15.5987565 C38.0129532,15.5987565 44.2639594,18.3963037 44.2639594,20.3731055 C44.2639594,22.3499074 38.5563954,21.7557699 20.7575604,23.9517986 Z" id="Fill-9" fill="#343A42" opacity="0.821056548"></path>
                        <g id="Group-7" transform="translate(0.303653, 0.000000)">
                            <path d="M10.6311027,0.975425526 C12.2928206,0.702856121 16.4182451,0.0830343321 16.9693656,1.0841386 C18.036902,3.02330681 18.6571326,3.50116268 20.3124215,4.72717617 C21.2454845,5.41826266 23.6030342,7.92287565 28.1202825,7.92287565 C32.0857923,7.92287565 36.5880686,3.6891932 40.296983,3.6891932 C52.6007161,3.6891932 53.4001324,13.6021244 53.4001324,14.2751036 C53.4001324,14.481181 53.3202294,15.1408365 53.1604234,16.2540702 C52.6812394,19.592173 49.8215403,22.0706736 46.4492194,22.0706736 L15.5590471,22.0706736 C15.3973482,22.0706736 15.2367348,22.0649552 15.0774247,22.0536898 C14.9901966,22.0650123 14.9007033,22.0706736 14.8089447,22.0706736 C13.1290027,21.9294948 11.6012069,21.4201813 10.2255573,20.5427332 C10.3351507,21.7035363 10.1101444,22.2839378 9.55053846,22.2839378 L0.878171626,22.2839378 C0.292723875,22.2839378 0,21.9306282 0,21.2240091 C0.639825952,9.79721867 1.17902363,3.54375667 1.61759305,2.46362305 C2.00303018,1.51434661 3.32718777,0.394611058 3.64323664,0.487084606 C4.43117751,0.717630241 5.52097887,0.975425526 7.05773497,0.975425526 L10.6311027,0.975425526 Z" id="Path" fill="#A6B8F3"></path>
                            <path d="M18.4217187,3.17437143 C18.8536266,3.62321567 19.3414651,4.00451164 20.0079274,4.50113433 C19.1065482,4.81907503 17.9504793,5.01909646 16.535018,5.12041488 L16.4139999,3.42974056 C17.1867691,3.3744259 17.856439,3.28754472 18.4217187,3.17437143 Z M20.8196028,5.1366374 C21.1785227,5.43340638 21.6428738,5.81118348 22.2259194,6.19206741 C21.4387274,6.85146095 20.285638,7.45423292 18.768527,8.03054417 L18.1666071,6.44601977 C19.3320991,6.00327953 20.2159496,5.55907828 20.8196028,5.1366374 Z M23.4625968,6.89139176 C23.9732018,7.13694122 24.5448072,7.36057638 25.1818286,7.53636242 C24.5136771,8.34546319 23.4391781,9.15297833 21.9661671,9.99285541 L21.1266012,8.52039009 C22.1575394,7.93257276 22.9346779,7.38295849 23.4625968,6.89139176 Z" id="Combined-Shape" fill="#24272B"></path>
                            <path d="M9.25756425,22.2839378 L0.878171626,22.2839378 C0.292723875,22.2839378 0,21.9306282 0,21.2240091 C0.203776519,17.58472 0.397345887,14.4701836 0.580708102,11.8803998 C1.12043077,11.7616918 1.68166516,11.6990674 2.25776407,11.6990674 C4.21927339,11.6990674 6.53208015,12.4513405 7.88657583,13.6451456 C9.45133497,15.0242697 9.91235004,17.0014405 9.91235004,19.2311889 C9.91235004,20.3178799 9.67847979,21.3508215 9.25756425,22.2839378 Z" id="Combined-Shape" fill="#7993EC"></path>
                            <path d="M28.8743501,7.87476499 C32.6488452,7.40720202 36.8212782,3.6891932 40.296983,3.6891932 C52.6007161,3.6891932 53.4001324,13.6021244 53.4001324,14.2751036 C53.4001324,14.481181 53.3202294,15.1408365 53.1604234,16.2540702 C52.6812394,19.592173 49.8215403,22.0706736 46.4492194,22.0706736 L18.5966809,22.0706736 C18.5315523,21.6434471 18.486018,21.1822377 18.4628117,20.684456 C18.271063,16.5713932 22.1906569,12.4094339 28.8743501,7.87476499 Z" id="Combined-Shape" fill="#7993EC"></path>
                            <path d="M45.7151757,14.1548118 C45.4948528,14.2692643 45.2745299,14.3837168 45.054207,14.4981694 C44.124594,14.9810814 43.9008936,15.2794682 43.194981,15.4639933 C43.0149034,15.5110655 43.2386039,15.2126787 43.2822267,14.9613641 C43.3953501,14.3096507 43.3953501,14.3096507 43.5084736,13.6579373 C43.5923845,13.1745198 43.6762954,12.8422517 43.6762954,12.6911022 C43.6762954,12.4675545 43.4441977,12.4675545 43.2121,12.2440068 C42.6434448,11.6962997 42.6434448,11.6962997 42.0747897,11.1485926 C41.8561024,10.9379612 41.4992495,10.8256953 41.6374151,10.7273299 C41.9250905,10.5225227 42.2819434,10.6347887 42.9264717,10.5422475 C43.1319718,10.5127418 43.1319718,10.5127418 43.3374719,10.4832361 C43.7100074,10.4297476 44.0825429,10.3762591 44.4550784,10.3227705 C44.5917324,10.0491734 44.7283864,9.77557631 44.8650405,9.50197921 C45.0486474,9.13437712 45.0486474,9.13437712 45.2322543,8.76677502 C45.473715,8.28334293 45.473715,7.78072274 45.7151757,7.79991084 C45.9765965,7.82068511 45.9765965,8.3233053 46.2380173,8.84669976 C46.6066451,9.58473513 46.6066451,9.58473513 46.975273,10.3227705 C47.0121378,10.396578 47.5428204,10.4042588 48.1103678,10.4857471 C48.396556,10.526838 48.396556,10.526838 48.6827443,10.5679288 C49.2378403,10.6476293 49.8060051,10.4688846 49.7929363,10.7273299 C49.7733488,11.114686 49.2051839,11.2934307 48.6174316,11.8595315 C48.1857438,12.2753169 47.754056,12.4381115 47.754056,12.6911022 C47.754056,12.944093 47.8610602,13.307562 47.9680643,13.9240217 C48.0346065,14.3073763 48.0346065,14.3073763 48.1011486,14.6907309 C48.1682595,15.0773621 48.4337276,15.4314615 48.2353703,15.4639933 C47.9190567,15.5158708 47.6535886,15.1617715 47.0718068,14.8595496 C46.6195964,14.624637 46.1673861,14.3897244 45.7151757,14.1548118 Z" id="Star" fill="#FFFFFF" fill-rule="nonzero"></path>
                            <path d="M38.9733295,17.3903741 C38.8297273,17.4650798 38.6861252,17.5397854 38.542523,17.614491 C37.9366194,17.929698 37.7897277,18.122355 37.3307158,18.2449051 C37.2136223,18.2761675 37.3605141,18.0835105 37.3903123,17.9221159 C37.4675855,17.5035846 37.4675855,17.5035846 37.5448588,17.0850533 C37.6021773,16.7746019 37.658593,16.5610613 37.6594958,16.4641505 C37.660831,16.3208209 37.5102744,16.322215 37.361053,16.1802796 C36.9954505,15.832528 36.9954505,15.832528 36.629848,15.4847764 C36.4892484,15.3510418 36.2584365,15.281205 36.3486489,15.2173072 C36.5364808,15.0842654 36.7672928,15.1541022 37.1859367,15.0908973 C37.3194163,15.0707451 37.3194163,15.0707451 37.4528958,15.050593 C37.6948708,15.0140607 37.9368457,14.9775284 38.1788207,14.9409961 C38.2690993,14.7647561 38.3593778,14.5885161 38.4496564,14.412276 C38.5709538,14.1754819 38.5709538,14.1754819 38.6922511,13.9386877 C38.8517687,13.6272807 38.8547708,13.3050213 39.0112864,13.3158736 C39.1807402,13.327623 39.1777381,13.6498823 39.3441898,13.983891 C39.5789023,14.4548747 39.5789023,14.4548747 39.8136148,14.9258584 C39.8370873,14.9729593 40.1812834,14.9746964 40.548952,15.0235343 C40.7343505,15.0481611 40.7343505,15.0481611 40.919749,15.0727878 C41.2793514,15.1205543 41.6489749,15.0025378 41.6389538,15.1683208 C41.6239342,15.4167952 41.2543107,15.5348117 40.8696676,15.9013025 C40.5871579,16.1704799 40.3061593,16.2774501 40.3046482,16.4396573 C40.3031372,16.6018646 40.3703774,16.8342632 40.4361066,17.228869 C40.4769813,17.4742605 40.4769813,17.4742605 40.517856,17.719652 C40.55908,17.9671409 40.7291683,18.1925802 40.600304,18.2146298 C40.3948086,18.2497914 40.2247203,18.024352 39.8491366,17.8340743 C39.5572009,17.6861743 39.2652652,17.5382742 38.9733295,17.3903741 Z" id="Star-Copy" fill="#FFFFFF" fill-rule="nonzero" transform="translate(38.983729, 15.781939) rotate(36.000000) translate(-38.983729, -15.781939) "></path>
                            <path d="M51.4447468,19.8749421 C50.197712,21.2326711 48.4101266,22.0706736 46.4492194,22.0706736 L15.5590471,22.0706736 C15.3973482,22.0706736 15.2367348,22.0649552 15.0774247,22.0536898 C14.9901966,22.0650123 14.9007033,22.0706736 14.8089447,22.0706736 C13.1290027,21.9294948 11.6012069,21.4201813 10.2255573,20.5427332 C10.3351507,21.7035363 10.1101444,22.2839378 9.55053846,22.2839378 L0.878171626,22.2839378 C0.292723875,22.2839378 0,21.9306282 0,21.2240091 C0.0223994344,20.8239727 0.0446755383,20.4302768 0.0668283117,20.0429214 C5.51847883,17.6981976 11.2245636,19.8256468 16.9865743,19.8256468 C23.1728091,19.8256468 25.2191403,20.6361659 30.6602625,20.6361659 C36.1013847,20.6361659 36.1013847,21.5863277 43.0660475,20.6361659 C43.9684272,20.5130577 49.20593,20.0312985 51.4447468,19.8749421 Z" id="Combined-Shape" fill="#24272B"></path>
                        </g>
                    </g>
                    <g id="Group-48" transform="translate(0.000000, 15.598756)"></g>
                    <path d="M5.23633734,17.1469193 C5.13832302,17.1948647 5.04030869,17.2428101 4.94229436,17.2907556 C4.52874045,17.4930526 4.42922356,17.6180501 4.11518654,17.6953496 C4.035076,17.7150687 4.13459288,17.5900712 4.15399923,17.4847928 C4.20432409,17.211783 4.20432409,17.211783 4.25464895,16.9387732 C4.29197812,16.7362644 4.32930729,16.5970737 4.32930729,16.5337556 C4.32930729,16.4401091 4.22605473,16.4401091 4.12280218,16.3464625 C3.86982643,16.1170221 3.86982643,16.1170221 3.61685068,15.8875817 C3.51956396,15.7993459 3.36081197,15.7523165 3.42227724,15.7111102 C3.55025446,15.6253142 3.70900645,15.6723436 3.99573567,15.6335771 C4.08715583,15.6212169 4.08715583,15.6212169 4.17857599,15.6088567 C4.34430464,15.5864497 4.51003329,15.5640428 4.67576194,15.5416359 C4.73655478,15.4270231 4.79734762,15.3124103 4.85814046,15.1977975 C4.93982106,15.043805 4.93982106,15.043805 5.02150166,14.8898125 C5.1289195,14.6872976 5.1289195,14.4767446 5.23633734,14.4847827 C5.35263476,14.4934853 5.35263476,14.7040383 5.46893218,14.9232939 C5.63292246,15.2324649 5.63292246,15.2324649 5.79691275,15.5416359 C5.81331265,15.5725546 6.0493957,15.5757722 6.30187866,15.6099085 C6.4291943,15.6271219 6.4291943,15.6271219 6.55650994,15.6443353 C6.8034537,15.6777227 7.05621135,15.6028446 7.05039745,15.7111102 C7.04168362,15.8733778 6.78892597,15.9482559 6.5274545,16.1854017 C6.33541095,16.3595786 6.1433674,16.427775 6.1433674,16.5337556 C6.1433674,16.6397362 6.19097,16.7919973 6.23857259,17.0502389 C6.26817497,17.2108303 6.26817497,17.2108303 6.29777735,17.3714217 C6.32763275,17.5333857 6.44573068,17.6817217 6.35748815,17.6953496 C6.21677072,17.7170817 6.09867278,17.5687456 5.83985742,17.4421416 C5.63868406,17.3437342 5.4375107,17.2453268 5.23633734,17.1469193 Z" id="Star-Copy-2" fill="#FFFFFF" fill-rule="nonzero"></path>
                </g>
                <g id="Group-12-Copy" transform="translate(28.797175, 44.139275) scale(-1, 1) translate(-28.797175, -44.139275) translate(0.797175, 31.139275)">
                    <g id="mouse" transform="translate(0.568087, 0.000000)">
                        <path d="M17.9438635,23.9517986 C11.0976109,24.9289451 6.10115241,23.2965466 2.90764204,22.5886988 C-1.07590851,21.7057371 1.53353366,19.4604846 1.53353366,18.363282 C1.53353366,16.3864801 10.4152827,15.5987565 21.6384264,15.5987565 C32.86028,15.5987565 38.2639594,18.3963037 38.2639594,20.3731055 C38.2639594,22.3499074 33.3300583,21.7557699 17.9438635,23.9517986 Z" id="Fill-9" fill="#343A42" opacity="0.821056548"></path>
                        <g id="Group-7" transform="translate(0.568087, 0.000000)">
                            <path d="M10.6311027,0.975425526 C12.2928206,0.702856121 16.4182451,0.0830343321 16.9693656,1.0841386 C18.036902,3.02330681 18.6571326,3.50116268 20.3124215,4.72717617 C21.2454845,5.41826266 23.6030342,7.92287565 28.1202825,7.92287565 C32.0857923,7.92287565 36.5880686,3.6891932 40.296983,3.6891932 C52.6007161,3.6891932 53.4001324,13.6021244 53.4001324,14.2751036 C53.4001324,14.481181 53.3202294,15.1408365 53.1604234,16.2540702 C52.6812394,19.592173 49.8215403,22.0706736 46.4492194,22.0706736 L15.5590471,22.0706736 C15.3973482,22.0706736 15.2367348,22.0649552 15.0774247,22.0536898 C14.9901966,22.0650123 14.9007033,22.0706736 14.8089447,22.0706736 C13.1290027,21.9294948 11.6012069,21.4201813 10.2255573,20.5427332 C10.3351507,21.7035363 10.1101444,22.2839378 9.55053846,22.2839378 L0.878171626,22.2839378 C0.292723875,22.2839378 0,21.9306282 0,21.2240091 C0.632361652,8.80508699 1.16782718,2.05555914 1.60639659,0.975425526 C2.26425071,-0.644774902 3.34665456,0.975425526 7.05773497,0.975425526 L10.6311027,0.975425526 Z" id="Path" fill="#91A7F0"></path>
                            <path d="M18.4217187,3.17437143 C18.8536266,3.62321567 19.3414651,4.00451164 20.0079274,4.50113433 C19.1065482,4.81907503 17.9504793,5.01909646 16.535018,5.12041488 L16.4139999,3.42974056 C17.1867691,3.3744259 17.856439,3.28754472 18.4217187,3.17437143 Z M20.8196028,5.1366374 C21.1785227,5.43340638 21.6428738,5.81118348 22.2259194,6.19206741 C21.4387274,6.85146095 20.285638,7.45423292 18.768527,8.03054417 L18.1666071,6.44601977 C19.3320991,6.00327953 20.2159496,5.55907828 20.8196028,5.1366374 Z M23.4625968,6.89139176 C23.9732018,7.13694122 24.5448072,7.36057638 25.1818286,7.53636242 C24.5136771,8.34546319 23.4391781,9.15297833 21.9661671,9.99285541 L21.1266012,8.52039009 C22.1575394,7.93257276 22.9346779,7.38295849 23.4625968,6.89139176 Z" id="Combined-Shape" fill="#24272B"></path>
                            <path d="M9.25756425,22.2839378 L0.878171626,22.2839378 C0.292723875,22.2839378 0,21.9306282 0,21.2240091 C0.182384039,17.6421771 0.356707819,14.5319511 0.522971341,11.893331 C1.08036715,11.7662442 1.66109307,11.6990674 2.25776407,11.6990674 C4.21927339,11.6990674 6.53208015,12.4513405 7.88657583,13.6451456 C9.45133497,15.0242697 9.91235004,17.0014405 9.91235004,19.2311889 C9.91235004,20.3178799 9.67847979,21.3508215 9.25756425,22.2839378 Z" id="Path" fill="#597EFE"></path>
                            <path d="M28.8743501,7.87476499 C32.6488452,7.40720202 36.8212782,3.6891932 40.296983,3.6891932 C52.6007161,3.6891932 53.4001324,13.6021244 53.4001324,14.2751036 C53.4001324,14.481181 53.3202294,15.1408365 53.1604234,16.2540702 C52.6812394,19.592173 49.8215403,22.0706736 46.4492194,22.0706736 L18.5966809,22.0706736 C18.5315523,21.6434471 18.486018,21.1822377 18.4628117,20.684456 C18.271063,16.5713932 22.1906569,12.4094339 28.8743501,7.87476499 Z" id="Path" fill="#597EFE"></path>
                            <path d="M46.4492194,22.0706736 L15.5590471,22.0706736 C15.3973482,22.0706736 15.2367348,22.0649552 15.0774247,22.0536898 C14.9901966,22.0650123 14.9007033,22.0706736 14.8089447,22.0706736 C13.1290027,21.9294948 11.6012069,21.4201813 10.2255573,20.5427332 C10.3351507,21.7035363 10.1101444,22.2839378 9.55053846,22.2839378 L0.878171626,22.2839378 C0.292723875,22.2839378 0,21.9306282 0,21.2240091 C0.020298609,20.8253656 0.106086308,19.1890326 0.126185235,18.8020725 C4.5221131,18.363282 11.222368,19.8256468 16.9865743,19.8256468 C23.1728091,19.8256468 25.2191403,20.6361659 30.6602625,20.6361659 C36.1013847,20.6361659 36.1013847,21.5863277 43.0660475,20.6361659 C43.9684272,20.5130577 49.20593,20.0312985 51.4447468,19.8749421 C50.197712,21.2326711 48.4101266,22.0706736 46.4492194,22.0706736 Z" id="Path" fill="#24272B"></path>
                        </g>
                    </g>
                    <g id="Group-48" transform="translate(0.000000, 15.598756)"></g>
                    <path d="M47.2832622,14.1548118 C47.0629393,14.2692643 46.8426164,14.3837168 46.6222935,14.4981694 C45.6926805,14.9810814 45.4689801,15.2794682 44.7630676,15.4639933 C44.5829899,15.5110655 44.8066904,15.2126787 44.8503132,14.9613641 C44.9634366,14.3096507 44.9634366,14.3096507 45.0765601,13.6579373 C45.160471,13.1745198 45.2443819,12.8422517 45.2443819,12.6911022 C45.2443819,12.4675545 45.0122842,12.4675545 44.7801865,12.2440068 C44.2115314,11.6962997 44.2115314,11.6962997 43.6428763,11.1485926 C43.4241889,10.9379612 43.067336,10.8256953 43.2055016,10.7273299 C43.493177,10.5225227 43.8500299,10.6347887 44.4945582,10.5422475 C44.7000583,10.5127418 44.7000583,10.5127418 44.9055584,10.4832361 C45.2780939,10.4297476 45.6506294,10.3762591 46.0231649,10.3227705 C46.1598189,10.0491734 46.296473,9.77557631 46.433127,9.50197921 C46.6167339,9.13437712 46.6167339,9.13437712 46.8003408,8.76677502 C47.0418015,8.28334293 47.0418015,7.78072274 47.2832622,7.79991084 C47.544683,7.82068511 47.544683,8.3233053 47.8061038,8.84669976 C48.1747317,9.58473513 48.1747317,9.58473513 48.5433595,10.3227705 C48.5802243,10.396578 49.1109069,10.4042588 49.6784543,10.4857471 C49.9646425,10.526838 49.9646425,10.526838 50.2508308,10.5679288 C50.8059268,10.6476293 51.3740917,10.4688846 51.3610228,10.7273299 C51.3414353,11.114686 50.7732705,11.2934307 50.1855181,11.8595315 C49.7538303,12.2753169 49.3221425,12.4381115 49.3221425,12.6911022 C49.3221425,12.944093 49.4291467,13.307562 49.5361509,13.9240217 C49.602693,14.3073763 49.602693,14.3073763 49.6692351,14.6907309 C49.736346,15.0773621 50.0018141,15.4314615 49.8034569,15.4639933 C49.4871432,15.5158708 49.2216751,15.1617715 48.6398933,14.8595496 C48.1876829,14.624637 47.7354726,14.3897244 47.2832622,14.1548118 Z" id="Star" fill="#FFFFFF" fill-rule="nonzero"></path>
                    <path d="M40.541416,17.3903741 C40.3978139,17.4650798 40.2542117,17.5397854 40.1106095,17.614491 C39.5047059,17.929698 39.3578142,18.122355 38.8988024,18.2449051 C38.7817089,18.2761675 38.9286006,18.0835105 38.9583988,17.9221159 C39.035672,17.5035846 39.035672,17.5035846 39.1129453,17.0850533 C39.1702638,16.7746019 39.2266795,16.5610613 39.2275823,16.4641505 C39.2289175,16.3208209 39.0783609,16.322215 38.9291395,16.1802796 C38.563537,15.832528 38.563537,15.832528 38.1979345,15.4847764 C38.057335,15.3510418 37.826523,15.281205 37.9167354,15.2173072 C38.1045673,15.0842654 38.3353793,15.1541022 38.7540232,15.0908973 C38.8875028,15.0707451 38.8875028,15.0707451 39.0209823,15.050593 C39.2629573,15.0140607 39.5049322,14.9775284 39.7469072,14.9409961 C39.8371858,14.7647561 39.9274644,14.5885161 40.0177429,14.412276 C40.1390403,14.1754819 40.1390403,14.1754819 40.2603376,13.9386877 C40.4198553,13.6272807 40.4228573,13.3050213 40.5793729,13.3158736 C40.7488267,13.327623 40.7458246,13.6498823 40.9122763,13.983891 C41.1469888,14.4548747 41.1469888,14.4548747 41.3817013,14.9258584 C41.4051738,14.9729593 41.7493699,14.9746964 42.1170385,15.0235343 C42.302437,15.0481611 42.302437,15.0481611 42.4878356,15.0727878 C42.8474379,15.1205543 43.2170614,15.0025378 43.2070403,15.1683208 C43.1920207,15.4167952 42.8223972,15.5348117 42.4377541,15.9013025 C42.1552444,16.1704799 41.8742458,16.2774501 41.8727347,16.4396573 C41.8712237,16.6018646 41.9384639,16.8342632 42.0041931,17.228869 C42.0450678,17.4742605 42.0450678,17.4742605 42.0859425,17.719652 C42.1271665,17.9671409 42.2972548,18.1925802 42.1683906,18.2146298 C41.9628951,18.2497914 41.7928068,18.024352 41.4172231,17.8340743 C41.1252874,17.6861743 40.8333517,17.5382742 40.541416,17.3903741 Z" id="Star-Copy" fill="#FFFFFF" fill-rule="nonzero" transform="translate(40.551816, 15.781939) rotate(36.000000) translate(-40.551816, -15.781939) "></path>
                    <path d="M5.23633734,17.1469193 C5.13832302,17.1948647 5.04030869,17.2428101 4.94229436,17.2907556 C4.52874045,17.4930526 4.42922356,17.6180501 4.11518654,17.6953496 C4.035076,17.7150687 4.13459288,17.5900712 4.15399923,17.4847928 C4.20432409,17.211783 4.20432409,17.211783 4.25464895,16.9387732 C4.29197812,16.7362644 4.32930729,16.5970737 4.32930729,16.5337556 C4.32930729,16.4401091 4.22605473,16.4401091 4.12280218,16.3464625 C3.86982643,16.1170221 3.86982643,16.1170221 3.61685068,15.8875817 C3.51956396,15.7993459 3.36081197,15.7523165 3.42227724,15.7111102 C3.55025446,15.6253142 3.70900645,15.6723436 3.99573567,15.6335771 C4.08715583,15.6212169 4.08715583,15.6212169 4.17857599,15.6088567 C4.34430464,15.5864497 4.51003329,15.5640428 4.67576194,15.5416359 C4.73655478,15.4270231 4.79734762,15.3124103 4.85814046,15.1977975 C4.93982106,15.043805 4.93982106,15.043805 5.02150166,14.8898125 C5.1289195,14.6872976 5.1289195,14.4767446 5.23633734,14.4847827 C5.35263476,14.4934853 5.35263476,14.7040383 5.46893218,14.9232939 C5.63292246,15.2324649 5.63292246,15.2324649 5.79691275,15.5416359 C5.81331265,15.5725546 6.0493957,15.5757722 6.30187866,15.6099085 C6.4291943,15.6271219 6.4291943,15.6271219 6.55650994,15.6443353 C6.8034537,15.6777227 7.05621135,15.6028446 7.05039745,15.7111102 C7.04168362,15.8733778 6.78892597,15.9482559 6.5274545,16.1854017 C6.33541095,16.3595786 6.1433674,16.427775 6.1433674,16.5337556 C6.1433674,16.6397362 6.19097,16.7919973 6.23857259,17.0502389 C6.26817497,17.2108303 6.26817497,17.2108303 6.29777735,17.3714217 C6.32763275,17.5333857 6.44573068,17.6817217 6.35748815,17.6953496 C6.21677072,17.7170817 6.09867278,17.5687456 5.83985742,17.4421416 C5.63868406,17.3437342 5.4375107,17.2453268 5.23633734,17.1469193 Z" id="Star-Copy-2" fill="#FFFFFF" fill-rule="nonzero"></path>
                </g>
            </g>
        </g>
        <g id="Group-14" transform="translate(-2.000000, -60.000000)"></g>
    </g>
</svg>