<?xml version="1.0" encoding="UTF-8"?>
<svg width="100px" height="100px" viewBox="0 0 100 100" version="1.1" xmlns="http://www.w3.org/2000/svg" xmlns:xlink="http://www.w3.org/1999/xlink">
    <!-- Generator: Sketch 52.5 (67469) - http://www.bohemiancoding.com/sketch -->
    <title>personality/powerful</title>
    <desc>Created with Sketch.</desc>
    <defs>
        <path d="M23.3661827,84.6282954 L9.61905626,71.9386402 C1.49219976,58.4739579 -0.507954083,51.9668347 0.10181488,44.4443874 C0.775306085,38.7442577 1.74690083,31.7818599 6.44664247,25.4099046 C11.7410272,18.0589605 15.2551352,15.977903 23.3661827,10.6053069 C30.7781993,4.5096504 42.3408628,2.6512284 48.745493,1.08806551 C64.5086552,-2.78114256 70.4406706,4.35857663 76.2397459,11.6627782 C82.6922799,19.1251904 86.5910192,21.7415265 88.9294011,30.6972609 C90.461256,38.8288678 92.4740794,44.8768456 92.1018149,51.8466862 C91.0854633,66.1149793 86.5216296,68.3319488 79.4121597,78.2834678 C75.4556628,83.2041189 72.7287372,86.5536876 64.607562,88.8581805 C55.0194802,90.7778544 48.488968,92.7806461 41.3431942,92.0305942 C36.4624429,90.945215 31.2645433,87.6714249 23.3661827,84.6282954 Z" id="path-1"></path>
        <path d="M56.4345238,44.9650735 C56.03643,42.8599829 54.1434139,40.9331892 52.8154762,39.6997333 C49.8777922,36.9710635 50.610119,35.4134935 44.2202381,33.2472426 C39.1268963,31.8558634 39.1268963,31.059616 33.3630952,32.0591161 C30.356354,32.5805148 28.1359495,33.3095849 25.7857143,35.288556 C23.9209805,36.8587198 21.375,39.1589366 19.9613095,42.0743778 C18.6247552,44.8307417 17.8690476,46.4227941 16.9642857,46.7238817 C16.0595238,47.0249694 17.1821316,45.2007144 17.4732143,37.1170521 C17.7642969,29.0333897 17.4732143,23.7720588 18.7404903,20.5878021 C22.1666667,19.8474265 23.8920413,18.4001546 26.0684524,15.6876063 C26.9053813,14.6445082 26.860119,15.5674129 28.952381,13.2876838 C31.0446429,11.0079548 29.5744048,8.80238971 28.2118393,8.46599265 C27.5387288,7.84926471 27.942368,7.65520615 28.6696429,7.03376398 C29.4086968,6.40225684 30.490452,4.20583927 26.4190235,3.08363971 C19.0675424,1.05736595 16.625,-1.18412158 13.9672619,3.08363971 C11.1499838,6.75430913 9.27380952,8.51689034 9.27380952,10.817474 C9.27380952,13.1180578 8.14210684,21.8308639 6.67261905,25.0626151 C4.32768978,30.2196691 1.1875,37.7398689 1.1875,47.2884351 C1.1875,53.9750795 -2.43154762,60.8345923 6.15253821,60.1628349 C13.5714286,59.7706946 25.4464286,61.2493618 30.1964286,60.8345923 C39.922619,60.4666578 49.5924828,57.2435662 52.5892857,54.4402574 C55.1339286,52.7095084 57.3071866,50.3329248 56.4345238,44.9650735 Z" id="path-3"></path>
        <path d="M2.76689696,21.9147224 C2.94062295,21.3235957 3.22028624,20.6675657 3.60356445,19.9840495 C4.98417969,17.5219401 5.02036133,16.2550781 7.10631543,13.0274089 C9.19226953,9.79973958 6.0918457,10.989974 5.02036133,9.90214844 C3.94887695,8.81432292 6.0918457,6.36080729 6.0918457,3.00208333 C6.0918457,1.0604157 6.46287172,0.504725609 7.21841363,2.65118771e-13 L8.9248807,0 C8.95019714,-1.08754996e-17 8.97540973,0.00342301098 8.99990545,0.0101858044 C9.15864714,0.0540113136 9.25374298,0.225648639 9.21230795,0.393548501 L9.21250188,0.393602041 C8.61899916,2.79854856 8.20876771,4.31567687 7.9818075,4.94498698 C7.7427054,5.60796389 7.22128768,6.632384 6.41755435,8.0182473 L12.1352517,8.0182473 C12.1757696,8.0182473 12.2158593,8.02701366 12.2530556,8.04400733 C12.4036797,8.11282219 12.4730421,8.29775714 12.4079808,8.45707112 L12.4081404,8.45714403 C11.4803265,10.729058 10.4473894,12.6609215 9.309329,14.2527344 C8.18906345,15.8196575 6.03962854,18.3541128 2.86102427,21.8561003 C2.83479398,21.8849992 2.80207811,21.9048834 2.76689696,21.9147224 Z" id="path-5"></path>
        <path d="M1.70270582,12.9496087 C1.80961412,12.6003066 1.98171461,12.2126524 2.21757812,11.8087565 C3.0671875,10.3538737 3.08945312,9.60527344 4.37311719,7.69801432 C5.65678125,5.79075521 3.74882812,6.49407552 3.08945312,5.85126953 C2.43007812,5.20846354 3.74882812,3.75865885 3.74882812,1.77395833 C3.74882812,0.62660928 3.97715183,0.298246951 4.4421007,1.56661092e-13 L5.49223428,0 C5.50781362,-6.4264316e-18 5.52332907,0.00202268831 5.53840335,0.00601888442 C5.63609055,0.0319157762 5.69461106,0.133337832 5.66911258,0.232551387 L5.66923192,0.232583024 C5.30399948,1.65368778 5.05154936,2.5501727 4.91188154,2.92203776 C4.76474178,3.31379684 4.44386934,3.919136 3.94926421,4.73805522 L7.46784717,4.73805522 C7.49278129,4.73805522 7.51745188,4.74323535 7.5403419,4.75327706 C7.63303367,4.79394038 7.6757182,4.90322013 7.63568047,4.99736021 L7.63577868,4.99740329 C7.06481632,6.33989794 6.42916271,7.48145361 5.72881785,8.42207031 C5.03942366,9.34797941 3.71669449,10.8456121 1.76063032,12.9149684 C1.7444886,12.932045 1.72435576,12.9437948 1.70270582,12.9496087 Z" id="path-7"></path>
    </defs>
    <g id="personality/powerful" stroke="none" stroke-width="1" fill="none" fill-rule="evenodd">
        <g id="tab02-illu-icon02" transform="translate(4.000000, 3.000000)">
            <g id="Group-10">
                <mask id="mask-2" fill="white">
                    <use xlink:href="#path-1"></use>
                </mask>
                <use id="Mask" fill="#202637" xlink:href="#path-1"></use>
                <path d="M57.347626,39.8770189 C61.4439284,37.3503113 59.3639166,32.4134501 68.5454303,28.3852967 C77.726944,24.3571433 76.5303255,25.84339 79.6813394,29.7754042 C82.8323532,33.7074183 83.611338,33.1884756 86.4727816,32.1724578 C89.3342252,31.1564399 89.1099102,31.2774125 94.9257862,34.7133579 C100.741662,38.1493034 110.152288,39.8770189 98.3125347,39.8770189 C86.4727816,39.8770189 53.2513236,42.4037264 57.347626,39.8770189 Z" id="Path-18" fill="#343A4B" mask="url(#mask-2)"></path>
                <path d="M0.303248193,52.0267497 C3.87661838,49.8369365 2.06214005,45.5583234 10.0715456,42.0672571 C18.0809512,38.5761908 17.0370925,39.8642714 19.7858493,43.272017 C22.534606,46.6797625 23.2141459,46.2300122 25.7102989,45.3494634 C28.2064518,44.4689146 28.0107728,44.5737575 33.0841965,47.5515769 C38.1576202,50.5293963 46.3668894,52.0267497 36.0385941,52.0267497 C25.7102989,52.0267497 -3.27012199,54.2165629 0.303248193,52.0267497 Z" id="Path-18" fill="#343A4B" mask="url(#mask-2)" transform="translate(20.500000, 46.500000) scale(-1, 1) translate(-20.500000, -46.500000) "></path>
                <g id="arm" mask="url(#mask-2)">
                    <g transform="translate(40.000000, 15.000000)">
                        <mask id="mask-4" fill="white">
                            <use xlink:href="#path-3"></use>
                        </mask>
                        <use id="Mask" stroke="none" fill="#FFDD0F" fill-rule="nonzero" xlink:href="#path-3"></use>
                        <path d="M16.8318067,5.76306961 C17.1239843,5.33370192 17.2296454,6.5452921 18.4547298,6.77451186 C19.3950143,6.95044406 21.2037627,7.57849004 22.0317846,7.26272871 C22.9260483,6.90549458 24.6351139,6.19866592 25.3769933,6.38156369 C25.3769933,6.52228032 25.8402327,6.53686293 25.2113889,6.77451186 C24.6965501,6.96907671 23.1305298,7.37141029 22.6583312,7.62589955 C21.7197406,8.13174859 21.667455,9.49240334 21.3362462,9.49240334 C20.9635332,8.78838478 20.9635332,8.70280319 20.6131826,8.31355884 C20.4420106,8.1233843 19.9782902,7.887865 19.5145979,7.887865 C18.9955242,7.887865 18.649413,7.62373843 18.4547298,7.887865 C18.0202766,8.47728724 18.2852436,10.6057565 18.4547298,10.965959 C18.601038,11.2769023 18.8477476,10.965959 19.1502682,10.965959 C20.2766368,10.965959 22.6583312,11.2279244 24.6152131,10.343791 C26.9292694,9.29828372 27.6294718,8.54644405 28.0929053,8.78838478 C28.7219433,9.32503663 25.3082374,10.6005331 24.6152131,10.965959 C23.6215868,11.4898898 21.4356088,11.9050136 19.7133231,11.9050136 C17.9910375,11.9050136 15.8050595,11.6825115 15.8050595,11.2279244 C15.8050595,10.965959 16.2687518,10.6057565 17.1239843,10.6057565 C17.8916748,10.6057565 17.4649681,8.78838478 17.4649681,7.887865 C17.4649681,6.77451186 16.5337188,6.08685257 16.8318067,5.76306961 Z" id="Path-11" stroke="none" fill="#E6BD00" fill-rule="nonzero" mask="url(#mask-4)"></path>
                        <path d="M17.5014881,22.4264706 C17.5014881,21.6414711 17.2281378,21.2489714 16.6814372,21.2489714 C15.8613863,21.2489714 13.9672619,20.015625 13.9672619,19.7352941 C13.9672619,19.5670956 14.7627785,20.015625 16.3988095,19.7352941 C17.0311849,19.6269378 18.1081483,19.5328836 19.5089286,19.3428309 C20.1857359,19.2510041 21.7238394,19.2622426 23.5285864,17.6485845 C25.3333333,16.0349265 26.860119,15.3137588 27.1428571,14.7905474 C27.5669643,14.0057305 25.6723982,17.7789117 24.3153657,18.4207058 C22.9583333,19.0625 20.6714539,20.6158352 19.5089286,20.9126838 C18.3464033,21.2095324 18.3216367,22.9708703 18.3216367,23.828125 C18.3216367,24.4364518 18.5217633,29.0960441 18.4777293,31.7750356 C18.7332542,38.1524034 18.8013602,45.5538942 18.3216367,46.1738573 C17.4631656,47.2832889 17.2840089,48.0400445 17.2840089,48.8955777 C17.2840089,49.7511108 15.8880166,50.9825651 16.4536904,48.8955777 C17.3529318,46.0498606 14.308701,48.8955777 13.6167689,48.8955777 C13.2708028,48.219759 15.000633,47.4581352 15.554449,46.9537414 C16.0528749,46.4997946 16.8844205,27.1598189 17.5021372,23.1488101 C17.5017045,22.9119671 17.5014881,22.6711872 17.5014881,22.4264706 Z" id="Path" stroke="none" fill="#E6BD00" fill-rule="nonzero" mask="url(#mask-4)"></path>
                        <path d="M0.802837364,58.7573529 C4.52700723,58.682014 7.22954431,58.1212062 8.9104486,57.0749296 C11.431805,55.5055147 17.8546333,56.0653004 20.6597738,57.0749296 C23.4649142,58.0845588 33.5336183,56.9514503 36.1905673,54.7205882 C38.8475164,52.4897262 47.012759,47.2382829 52.2447942,47.827308 C57.4768294,48.416333 60.1422182,48.3290441 58.8095238,52.0294118 C57.4768294,55.7297794 41.1675502,67.6158088 33.4766323,67.6158088 C25.7857143,67.6158088 0.566359747,65.7556976 -0.904320126,62.7631961 C-1.88477338,60.7681951 -1.31572088,59.432914 0.802837364,58.7573529 Z" id="Path-2" stroke="none" fill="#E6BD00" fill-rule="nonzero" mask="url(#mask-4)"></path>
                        <path d="M11.5773214,6.31417329 C11.5773214,7.51026734 9.86262346,10.3207312 10.7199724,14.6094023 C11.5773214,18.8980734 11.4754867,19.5495952 9.69003813,21.4599567 C7.90458953,23.3703183 7.54750101,27.2306486 6.13721359,30.9755697 C4.72692616,34.7204908 1.24404762,45.9077487 1.80952381,47.9669896 C2.375,50.0262305 0.22530692,54.1554321 -1.2444894,53.7632604 C-2.71428571,53.3710887 -2.48721168,28.9416147 0.565917969,25.9653762 C3.61904762,22.9891376 7.34731038,12.8083897 7.6546862,10.0739581 C7.96206202,7.33952659 11.5773214,5.11807924 11.5773214,6.31417329 Z" id="Path-10" stroke="none" fill="#E6BD00" fill-rule="nonzero" mask="url(#mask-4)"></path>
                    </g>
                </g>
            </g>
            <g id="Group" transform="translate(27.412149, 52.692788) rotate(-24.000000) translate(-27.412149, -52.692788) translate(20.912149, 41.692788)">
                <path d="M8.9242235,-1.70950365e-16 L6.15988743,-5.86197757e-15 L4.4716538,-0.000159711241 C4.35613667,-0.000159711241 4.25074027,0.0657381784 4.20015602,0.16959116 C3.15748247,2.31027245 2.44794528,3.90207106 2.07154444,4.94498698 C1.69836914,5.9789657 1.00754328,8.26085005 -0.000933119571,11.79064 L-0.000950679373,11.790635 C-0.0467470884,11.950928 0.0460707361,12.1179965 0.206363734,12.1637929 C0.231248369,12.1709026 0.256944032,12.1747824 0.282818435,12.1753368 L1.30865261,12.1973201 L5.01446361,12.1669552 C4.74033928,13.7944574 4.49648326,14.9912579 4.28289553,15.7573568 C4.09066658,16.4468458 3.4743789,18.3964242 2.43403247,21.606092 L2.52229692,21.6347011 C2.48669857,21.7445288 2.54687336,21.8624199 2.65670105,21.8980182 C2.73490743,21.9233672 2.8207104,21.9005235 2.87595983,21.839644 C6.04636258,18.3461719 8.19081897,15.817202 9.309329,14.2527344 C10.4512318,12.6555471 11.4873003,10.7160092 12.4175344,8.4341206 L12.4176287,8.43415902 C12.4805774,8.27974403 12.4064294,8.10353588 12.2520144,8.0405871 C12.2158253,8.02583425 12.1771163,8.0182473 12.1380356,8.0182473 L6.41755435,8.0182473 C7.22128768,6.632384 7.7427054,5.60796389 7.9818075,4.94498698 C8.2093748,4.31399353 8.62119513,2.79042588 9.21726849,0.37428403 L9.21742129,0.374321726 C9.25736984,0.21239306 9.15848541,0.0487392416 8.99655675,0.00879069151 C8.97288885,0.0029517114 8.94860101,-4.11020436e-17 8.9242235,-1.66533454e-16 Z" id="Mask" fill="#94A7E7"></path>
                <mask id="mask-6" fill="white">
                    <use xlink:href="#path-5"></use>
                </mask>
                <use id="Combined-Shape" fill="#7993EC" xlink:href="#path-5"></use>
            </g>
            <g id="Group" transform="translate(31.443673, 25.763192) rotate(-4.000000) translate(-31.443673, -25.763192) translate(27.443673, 19.263192)">
                <path d="M5.4989697,-8.69017e-17 L3.79069996,-3.46389584e-15 L2.74501896,3.8672644e-05 C2.67785134,3.8672644e-05 2.61638206,0.0377821295 2.58599481,0.0976829187 C1.94364835,1.36390685 1.50658227,2.30535846 1.27479658,2.92203776 C1.04521408,3.53285534 0.620262974,4.8806618 -5.67263404e-05,6.96545713 L0.000194242759,6.9655318 C-0.0278562855,7.05980515 0.0258279109,7.15896823 0.120101252,7.18701876 C0.135408949,7.19157349 0.151259763,7.19404842 0.167227329,7.19437699 L0.805324681,7.20750731 L3.08582376,7.18956445 C2.91713187,8.15127026 2.76706662,8.85847057 2.63562802,9.31116536 C2.51733328,9.71859068 2.13807932,10.8706143 1.49786614,12.7672362 L1.54325691,12.782558 C1.52021535,12.8508183 1.55687236,12.9248331 1.62513265,12.9478747 C1.67337274,12.9641583 1.72667837,12.9508874 1.7616528,12.9138867 C3.71715544,10.8450902 5.03954379,9.34781807 5.72881785,8.42207031 C6.43112711,7.47881527 7.06838171,6.33349245 7.64058164,4.98610185 L7.64055919,4.98609231 C7.67905715,4.89543904 7.63677692,4.79074127 7.54612365,4.7522433 C7.5240767,4.74288057 7.50036954,4.73805522 7.47641691,4.73805522 L3.94926421,4.73805522 C4.44386934,3.919136 4.76474178,3.31379684 4.91188154,2.92203776 C5.05186548,2.54933103 5.30514284,1.64962693 5.67171363,0.222925484 L5.67189439,0.222971927 C5.6964327,0.12746826 5.63890392,0.0301550039 5.54340026,0.00561668548 C5.52888451,0.00188706993 5.51395692,-6.15186402e-18 5.4989697,-8.32667268e-17 Z" id="Mask" fill="#91A7F0"></path>
                <mask id="mask-8" fill="white">
                    <use xlink:href="#path-7"></use>
                </mask>
                <use id="Combined-Shape" fill="#7993EC" xlink:href="#path-7"></use>
            </g>
        </g>
    </g>
</svg>