<?xml version="1.0" encoding="UTF-8"?>
<svg width="100px" height="100px" viewBox="0 0 100 100" version="1.1" xmlns="http://www.w3.org/2000/svg" xmlns:xlink="http://www.w3.org/1999/xlink">
    <!-- Generator: Sketch 52.5 (67469) - http://www.bohemiancoding.com/sketch -->
    <title>personality/rugged</title>
    <desc>Created with Sketch.</desc>
    <defs>
        <path d="M23.995414,84.8661055 L10.2482876,72.1764503 C2.12143109,58.711768 0.12127725,52.2046448 0.731046213,44.6821974 C1.40453742,38.9820678 2.37613216,32.01967 7.0758738,25.6477147 C12.3702585,18.2967706 15.8843665,16.2157131 23.995414,10.843117 C31.4074306,4.74746049 42.9700942,2.8890385 49.3747244,1.32587561 C65.1378866,-2.54333246 71.0699019,4.59638673 76.8689772,11.9005883 C83.3215113,19.3630005 87.2202505,21.9793366 89.5586324,30.935071 C91.0904873,39.0666779 93.1033108,45.1146557 92.7310462,52.0844963 C91.7146947,66.3527894 87.150861,68.5697589 80.041391,78.5212779 C76.0848941,83.441929 73.3579685,86.7914977 65.2367933,89.0959905 C55.6487116,91.0156645 49.1181993,93.0184562 41.9724255,92.2684043 C37.0916742,91.1830251 31.8937746,87.909235 23.995414,84.8661055 Z" id="path-1"></path>
    </defs>
    <g id="personality/rugged" stroke="none" stroke-width="1" fill="none" fill-rule="evenodd">
        <g id="illustation" transform="translate(2.598802, 2.197605)">
            <g id="Group-2" transform="translate(0.771966, 0.564585)">
                <mask id="mask-2" fill="white">
                    <use xlink:href="#path-1"></use>
                </mask>
                <use id="Mask" fill="#202637" xlink:href="#path-1"></use>
                <path d="M2.26935581,83.89918 C11.0400055,83.1558745 53.8110747,83.1130508 63.8959599,83.1130508 C68.0906184,83.1130508 34.8991881,30.3692343 32.4141114,28.5473061 C31.1155624,27.595278 29.6479279,26.5671092 28.0468487,27.19 C26.7133892,27.7087748 25.2408666,29.6412171 24.1288093,31.2204304 C23.2678311,32.4430907 21.8404032,33.6318202 20.3699072,36.063309 C18.959022,38.3962305 17.5242182,41.9331256 15.7819559,44.959907 C14.7699842,46.7179759 13.0891824,49.2484419 12.0254057,51.1311922 C10.751337,53.3861326 10.0878283,55.0117088 8.80893676,57.3187719 C7.53348572,59.6196286 6.05415135,63.1464697 4.84913437,65.3619707 C3.84525713,67.2076634 3.09917479,67.765555 2.19197064,69.4648543 C0.843238483,71.9911871 -0.143219508,74.761527 -1.15890675,76.7465936 C-3.13592715,80.6104966 -4.57826178,82.752896 -4.49670737,83.1130508 C-4.24475547,84.0915796 -3.0012054,84.3413998 2.26935581,83.89918 Z" id="light-copy" fill="#697079" fill-rule="nonzero" mask="url(#mask-2)" transform="translate(29.880993, 55.554968) rotate(-360.000000) translate(-29.880993, -55.554968) "></path>
                <g id="mountain" mask="url(#mask-2)">
                    <g transform="translate(8.228034, 24.435415)">
                        <path d="M8.90955462,70.6902053 C21.0667167,70.6902053 72.6219427,70.7486558 85.3389082,70.7486558 C86.2582287,70.7486558 85.3210862,69.4579516 83.9069806,66.1234107 C83.1619297,64.3665384 81.9941188,60.4633543 80.7866941,58.0720582 C79.9319041,56.3791527 78.3514809,53.4873041 77.3197091,51.562454 C74.5130843,46.3264781 71.1036035,40.402664 67.612151,34.4319166 C63.9294632,28.1341372 58.0385928,18.4820064 54.6109571,13.0187449 C49.2371303,4.45347627 47.8853104,2.61436747 46.9218679,1.91840987 C43.9206475,-0.249567962 40.5164353,2.03316905 38.1427781,3.59694941 C37.1026826,4.2821709 33.6288827,9.99997722 29.9953633,16.1022417 C28.1752065,19.1590791 26.1079973,22.5693521 24.1014887,26.0379533 C22.3861853,29.0031554 21.7043412,32.2355015 19.9776335,35.2797521 C19.2384046,36.5830404 17.1051527,40.1303366 16.3788866,41.4213482 C15.7065696,42.6164595 13.0319165,45.7912717 12.3781548,46.9626216 C10.4304812,50.4522836 8.14312442,55.0180858 6.48656526,58.0720582 C4.33493775,62.0387206 3.20620363,63.5444762 1.91278448,66.1234107 C0.541522368,68.8575555 -0.0676905614,69.5717371 0.00594270971,69.8921289 C0.323652178,71.1078996 2.22973663,70.6902053 8.90955462,70.6902053 Z" id="light" fill="#47505E" fill-rule="nonzero" transform="translate(42.852428, 35.894238) rotate(-360.000000) translate(-42.852428, -35.894238) "></path>
                        <path d="M65.8115512,70.7966675 C77.170026,70.7966675 79.5202701,70.7966675 85.4307349,70.7966675 C86.8125939,70.7966675 83.4126611,66.2270219 81.3003804,59.477827 C73.0396715,43.1855564 50.3247977,4.12944169 48.012311,2.2785312 C46.4073935,0.993958 43.3687219,0.950975884 43.3687219,1.07532231 C43.3687219,7.49999466 47.9561339,18.4647767 51.4624297,30.3937999 C52.5209079,33.9949254 52.0888542,36.4391776 53.1963595,40.6746902 C54.2994749,44.8934142 56.5140039,48.5392521 57.7479942,52.884744 C58.7223657,56.3159893 60.2634725,59.6680883 61.1927128,62.5811713 C62.3954804,66.3517372 65.4843866,68.9155728 65.8115512,70.7966675 Z" id="light" fill="#24272B" fill-rule="nonzero" opacity="0.637737772" style="mix-blend-mode: multiply;" transform="translate(64.560189, 35.912827) rotate(-360.000000) translate(-64.560189, -35.912827) "></path>
                        <path d="M36.143939,24.4609447 C38.0405492,22.72835 40.891324,27.9007551 43.8784448,27.9007551 C45.6800867,27.9007551 47.3658974,31.1532746 51.4413596,29.7658704 C51.4413596,29.7658704 49.5573637,20.3630287 47.956373,15.102827 C47.204084,12.6311123 46.2610334,9.92671853 45.3318769,7.42831005 C44.8064063,6.01537232 44.3803406,4.78673898 44.1271902,3.4838656 C43.8264039,1.93582742 43.6108959,2.02613613 43.3639345,1.02898551 C40.0541613,1.41301903 38.2057788,3.04701512 36.143939,5.79908299 C34.2081292,8.3829306 33.6756735,9.90898288 32.4055945,11.9912799 C28.3664637,18.6134433 25.5728538,22.9995514 25.8312646,22.9995514 C25.9794577,23.5608864 26.8664488,25.2735293 29.1582244,25.3580183 C30.1992459,25.3963967 33.6183209,26.7681517 36.143939,24.4609447 Z" id="Combined-Shape" fill="#FFFFFF" fill-rule="nonzero"></path>
                        <path d="M63.2300796,26.7217883 C56.7449097,14.2675925 49.6131511,3.94058829 48.5155238,2.92633097 C48.0042861,2.01409726 46.7961744,1.52076656 46.2784165,1.3401458 C44.8193703,0.831154925 43.3590169,0.982901704 43.3687669,1.07114015 C43.7305982,4.34576686 45.8439973,8.28777986 48.2287173,16.2535547 C49.1011227,19.1676852 50.9723036,28.0711568 51.3983351,29.8087448 C52.3345166,29.8087448 54.8556609,27.0983432 57.6953752,26.9891605 C59.5669192,26.9172025 61.5376729,29.1031701 63.2300796,26.7217883 Z" id="light" fill="#B7BBC1" fill-rule="evenodd"></path>
                    </g>
                </g>
                <path d="M78.2730741,22.0556281 C78.62993,20.5029228 79.8372663,19.2910553 81.3841658,18.9328601 L87.6267859,17.4858776 C87.8625938,17.4322272 88.0292313,17.2223595 88.0292313,16.9793549 C88.0292313,16.7363502 87.8625938,16.5264825 87.6267859,16.4712541 L81.3841658,15.0258496 C79.8372663,14.6676544 78.62993,13.4557869 78.2730741,11.9046595 L76.8315021,5.64176594 C76.7780523,5.40507306 76.5689693,5.23781009 76.3268733,5.23781009 C76.0847772,5.23781009 75.8756942,5.40507306 75.8206724,5.64176594 L74.3806724,11.9046595 C74.0238165,13.4573648 72.8164802,14.6676544 71.2711527,15.0258496 L65.0316767,16.4712541 C64.7958689,16.5264825 64.6292313,16.7363502 64.6292313,16.9793549 C64.6292313,17.2223595 64.7958689,17.4322272 65.0316767,17.4858776 L71.2711527,18.9328601 C72.8164802,19.2910553 74.0238165,20.5029228 74.3806724,22.0556281 L75.8206724,28.3216776 C75.8756942,28.5583705 76.0847772,28.7256335 76.3268733,28.7256335 C76.5689693,28.7256335 76.7780523,28.5583705 76.8315021,28.3216776 L78.2730741,22.0556281 Z" id="Stroke-121-Copy" fill="#FFDD0F"></path>
            </g>
        </g>
        <path d="M88.3232847,72.7581405 C88.3232847,72.7581405 54,72.7581405 54,72.7581405 C57.7159709,70.8140403 63.6525295,64.0715284 65.4039574,64.9347212 C67.1553852,65.797914 62.5062053,73.7000377 73.0459478,64.9347212 C83.5856902,56.1694047 84.1555303,69.5215509 88.3232847,72.7581405 Z" id="Path-6" fill="#FFFFFF"></path>
        <path d="M20.3678691,34.7696416 C22.5890104,32.8730068 25.1917283,34.481793 28.1760225,39.5960002 L14,39.5960002 C16.0241047,38.2750626 18.1467277,36.6662763 20.3678691,34.7696416 Z" id="Path-8" fill="#FFFFFF"></path>
    </g>
</svg>