<?xml version="1.0" encoding="UTF-8"?>
<svg width="100px" height="100px" viewBox="0 0 100 100" version="1.1" xmlns="http://www.w3.org/2000/svg" xmlns:xlink="http://www.w3.org/1999/xlink">
    <!-- Generator: Sketch 52.5 (67469) - http://www.bohemiancoding.com/sketch -->
    <title>personality/sophisticated</title>
    <desc>Created with Sketch.</desc>
    <defs>
        <rect id="path-1" x="0" y="0" width="100" height="100"></rect>
        <path d="M23.3661827,84.6282954 L9.61905626,71.9386402 C1.49219976,58.4739579 -0.507954083,51.9668347 0.10181488,44.4443874 C0.775306085,38.7442577 1.74690083,31.7818599 6.44664247,25.4099046 C11.7410272,18.0589605 15.2551352,15.977903 23.3661827,10.6053069 C30.7781993,4.5096504 42.3408628,2.6512284 48.745493,1.08806551 C64.5086552,-2.78114256 70.4406706,4.35857663 76.2397459,11.6627782 C82.6922799,19.1251904 86.5910192,21.7415265 88.9294011,30.6972609 C90.461256,38.8288678 92.4740794,44.8768456 92.1018149,51.8466862 C91.0854633,66.1149793 86.5216296,68.3319488 79.4121597,78.2834678 C75.4556628,83.2041189 72.7287372,86.5536876 64.607562,88.8581805 C55.0194802,90.7778544 48.488968,92.7806461 41.3431942,92.0305942 C36.4624429,90.945215 31.2645433,87.6714249 23.3661827,84.6282954 Z" id="path-3"></path>
        <path d="M0.0200379277,20.0048127 C0.0155960806,19.4708642 0.0116277285,18.9338743 0.00841779241,18.3920127 L5.18245968,18.3920127 L5.18245968,20.0048127 L0.0200379277,20.0048127 Z M0.00149183738,16.8050789 C0.000523993971,16.4427509 -1.55976819e-12,16.0775718 -1.55976819e-12,15.7090268 C-1.55976819e-12,15.5437361 0.000191545273,15.3711434 0.000556922841,15.1922773 L8.49495968,15.1922773 L8.49495968,16.8050772 L0.00149157568,16.8050772 Z M0.00709110141,13.6053418 C0.0100917403,13.0843983 0.0138983579,12.5412114 0.0182223266,11.9925418 L8.49495968,11.9925418 L8.49495968,13.6053418 L0.00709110142,13.6053418 Z" id="path-5"></path>
        <path d="M0.378719804,7.24153276 C4.93150828,5.44091133 7.85505521,3.45488171 9.14936061,1.28344389 C9.86194807,0.0879460233 12.1839177,0.512139134 12.4317136,1.28344389 C13.0916684,3.33766051 15.9297765,5.18165232 20.9460379,6.81541933 L20.9460379,6.81541937 C21.2869277,6.92644517 21.5176471,7.24423711 21.5176471,7.60275149 L21.5176471,7.60275149 C21.5176471,7.936893 21.2467718,8.20776822 20.9126303,8.20776822 L0.409165097,8.20776822 C0.183189699,8.20776822 4.44387651e-07,8.02457896 4.44387651e-07,7.79860356 L4.44387651e-07,7.79860356 C4.44387735e-07,7.55280402 0.150153753,7.33194834 0.378725969,7.24154835 Z" id="path-7"></path>
        <path d="M1.05702623,6.96689559 C5.22307351,5.23953911 7.9205183,3.34505521 9.14936061,1.28344389 C9.86194807,0.0879460233 12.1839177,0.512139134 12.4317136,1.28344389 C13.0664091,3.25903677 15.715714,5.04018929 20.3796284,6.62690148 C18.6845244,7.15528639 17.7778132,6.61087025 16.8355798,5.9766236 C15.6474684,5.17686878 15.2104774,5.9766236 13.1022548,5.9766236 C10.9940322,5.9766236 9.50551761,6.83976477 7.10859289,6.83976477 C5.05302298,6.83976477 3.01582277,7.72390421 1.05702623,6.96689559 Z" id="path-9"></path>
        <path d="M5.1650452,0.272596347 C5.1650452,0.272596347 19.4248012,0.272596347 19.52288,0.272596347 C20.4722508,0.272596347 25.3246177,9.62563308 25.3246177,15.165835 C25.3246177,20.9723339 25.3246177,28.7373307 12.6331417,31.600467 C1.71378293,30.2171212 0.106781961,20.6019644 0.106781961,15.165835 C0.106781961,9.72970565 4.09669551,2.43834459 5.1650452,0.272596347 Z" id="path-11"></path>
        <path d="M21.9047806,24.9004688 C19.3490627,27.5629685 19.1140369,27.580933 17.4527722,28.3707612 C15.2368113,29.4243131 11.8314798,30.6399046 10.0170817,29.6387697 C6.8424631,27.8871026 7.22306207,27.5675461 4.83631714,25.485647 C1.31124246,22.4108108 1.31124246,18.2437623 1.31124246,14.5340002 C1.31124246,10.4671018 5.12039351,11.6801676 10.0170817,12.3541029 C18.1187878,13.4691474 23.6972426,12.0327771 24.3965193,13.5144184 C25.2416576,15.3051138 24.3965193,21.6325897 21.9047806,24.9004688 Z" id="path-13"></path>
        <path d="M14.9415268,0.272596347 L19.52288,0.272596347 C20.4236656,0.272596347 24.8381885,8.69282332 25.2876661,14.2870631 C24.9938899,17.9316707 22.8111168,25.3595653 20.1168325,28.5396233 C19.3488394,29.0797623 18.4675902,29.5822001 17.456383,30.0379088 C13.4835727,29.9981596 12.4125498,28.7057319 10.4860173,23.868271 C8.71272937,19.4156022 7.40203023,17.2072919 8.58170353,13.5281508 C10.3549914,7.99765646 11.3468815,4.7341405 13.9539642,1.33123491 C14.2735126,0.914143058 14.6026501,0.564905365 14.9415268,0.272596347 Z" id="path-15"></path>
        <path d="M8.98933142,10.9314663 C10.3539833,10.9314663 11.6421413,10.5710718 12.8006865,10.2402432 C15.8569854,9.36750124 17.9786628,7.65463252 17.9786628,5.46573316 C17.9786628,3.78617917 16.6298982,2.82720648 14.6693513,1.82457987 C13.1062322,1.0251984 11.3494671,0.446581714 9.14710975,0.446581714 C4.1824391,0.446581714 1.22616303,2.45708903 0.315556662,5.00758659 C-0.333212493,6.82470999 1.6925105,8.21662031 4.02156798,9.20429821 C5.47755905,9.82173689 7.07957623,10.9314663 8.98933142,10.9314663 Z" id="path-17"></path>
        <path d="M8.98933142,10.9314663 C10.3539833,10.9314663 11.6421413,10.5710718 12.8006865,10.2402432 C15.8569854,9.36750124 17.9786628,7.65463252 17.9786628,5.46573316 C17.9786628,3.78617917 16.6298982,2.82720648 14.6693513,1.82457987 C13.1062322,1.0251984 11.1916888,0 8.98933142,0 C4.02466077,0 0,2.44709209 0,5.46573316 C0,7.32319641 1.68064747,9.25256534 4.00970495,10.2402432 C5.46569601,10.8576819 7.07957623,10.9314663 8.98933142,10.9314663 Z" id="path-19"></path>
    </defs>
    <g id="personality/sophisticated" stroke="none" stroke-width="1" fill="none" fill-rule="evenodd">
        <g id="tab02-illu-icon02" transform="translate(-3.000000, 0.000000)">
            <mask id="mask-2" fill="white">
                <use xlink:href="#path-1"></use>
            </mask>
            <g id="Mask"></g>
            <g id="Group-10" mask="url(#mask-2)">
                <g transform="translate(7.000000, 3.000000)">
                    <mask id="mask-4" fill="white">
                        <use xlink:href="#path-3"></use>
                    </mask>
                    <use id="Mask" stroke="none" fill="#202637" fill-rule="evenodd" xlink:href="#path-3"></use>
                    <g id="books" stroke="none" stroke-width="1" fill="none" fill-rule="evenodd" mask="url(#mask-4)">
                        <g transform="translate(40.000000, 21.000000)" id="Group-3">
                            <g transform="translate(34.781250, 0.000000)">
                                <path d="M17.070277,52.6832686 C17.070277,48.0721717 17.070277,42.4718242 17.070277,38.2799071 C17.070277,33.178674 17.2332938,28.1715328 17.2332938,23.0702996 C17.2332938,17.0040586 17.070277,6.43178402 17.070277,6.43178402 C17.2332938,3.09193186 14.7623584,0.381284611 14.0974494,0.381284611 C13.6866174,0.381284611 13.2757854,0.381284611 12.8649534,0.381284611 L3.05322157,0.381284611 L1.90096036,0.381284611 C1.63218432,0.381284611 0.116531529,1.87484499 0.116531529,5.51018478 C0.116531529,5.51018478 -1.54669928e-13,12.4803754 -1.54669928e-13,16.0448942 C-1.54669928e-13,20.8501375 0.116531529,25.0815278 0.116531529,29.8867711 C0.116531529,33.8236027 -1.54669928e-13,37.6817262 -1.54669928e-13,41.6185578 C-1.54669928e-13,44.4544313 0.116531529,46.8687228 0.116531529,50.2048862 C0.116531529,53.5410496 -0.311743938,56.0664864 1.22800052,56.0664864 C2.76774498,56.0664864 5.50181644,56.0664864 6.93553631,56.0664864 C8.51152441,56.0664864 10.0482707,56.0664864 11.6242588,56.0664864 C12.6242755,56.0664864 13.663534,56.0664864 14.6635507,56.0664864 C15.9005042,56.0664864 17.070277,57.2943654 17.070277,52.6832686 Z" id="Mask" fill="#767B84"></path>
                                <path d="M0.0226349372,20.0048127 C0.0171232239,19.4712209 0.0123020085,18.9342288 0.00854162873,18.3920127 L8.49495968,18.3920127 L8.49495968,20.0048127 L0.0226349372,20.0048127 Z M0.000949322621,16.8050779 C0.000328044286,16.5531845 -1.54669928e-13,16.2998471 -1.54669928e-13,16.0448942 C-1.54669928e-13,15.7782928 0.000651878021,15.4926401 0.00185812213,15.1922773 L11.8074597,15.1922773 L11.8074597,16.8050772 L0.00094904038,16.8050772 Z" id="Combined-Shape" fill="#FFFFFF"></path>
                                <path d="M11.0948227,56.0664864 C11.0263614,54.5872361 11.0780079,52.4340039 11.2097745,49.2589677 C11.3010435,47.0597572 12.1779209,43.0813109 12.0186757,40.3279309 C11.8600462,37.5851963 11.3523465,36.4501841 11.0401379,33.8560911 C10.7940602,31.8114696 10.7140931,28.364718 10.7155547,25.9132544 C10.7173106,22.9681504 10.0785441,19.663821 9.94750333,15.0705839 C9.84479572,11.4704798 10.2153626,6.4651466 10.3723622,4.31959217 C10.4811015,2.83356222 10.5616184,1.52694211 10.6293951,0.381284611 L14.0974494,0.381284611 C14.7623584,0.381284611 17.2332938,3.09193186 17.070277,6.43178402 C17.070277,6.43178402 17.2332938,17.0040586 17.2332938,23.0702996 C17.2332938,28.1715328 17.070277,33.178674 17.070277,38.2799071 L17.070277,52.6832686 C17.070277,57.2943654 15.9005042,56.0664864 14.6635507,56.0664864 L11.0948227,56.0664864 Z" id="Combined-Shape" fill="#47505E"></path>
                            </g>
                            <g transform="translate(24.843750, 0.000000)">
                                <path d="M13.1246628,52.4536356 C13.1246628,47.8291687 13.1246628,42.2125828 13.1246628,38.0085111 C13.1246628,32.8924867 13.25,27.8708271 13.25,22.7548027 C13.25,16.6709724 13.1246628,6.06804308 13.1246628,6.06804308 C13.25,2.71850688 11.3501952,9.68785178e-17 10.838973,9.68785178e-17 C10.5231004,9.68785178e-17 10.2072279,0 9.89135536,0 L2.34750166,0 L1.46157346,0 C1.25492216,0 0.0895964971,1.49789102 0.0895964971,5.14377161 C0.0895964971,5.14377161 -1.54669928e-13,12.1341725 -1.54669928e-13,15.7090268 C-1.54669928e-13,20.5282031 0.0895964971,24.7718625 0.0895964971,29.5910388 C0.0895964971,33.5392854 -1.54669928e-13,37.4085957 -1.54669928e-13,41.3568423 C-1.54669928e-13,44.2009385 0.0895964971,46.6222304 0.0895964971,49.9680671 C0.0895964971,53.3139038 -0.23968762,55.8466632 0.944161177,55.8466632 C2.12800997,55.8466632 4.2301297,55.8466632 5.33246037,55.8466632 C6.54417547,55.8466632 7.72571908,55.8466632 8.93743418,55.8466632 C9.70630758,55.8466632 10.5053525,55.8466632 11.2742259,55.8466632 C12.2252707,55.8466632 13.1246628,57.0781025 13.1246628,52.4536356 Z" id="Mask" fill="#697079"></path>
                                <path d="M9.56859524,55.8466632 L9.39310187,55.4659169 C8.71309984,53.9906002 9.93834022,48.1090646 9.16068796,38.3763023 C8.79008679,33.738017 6.1945562,26.9297454 6.02720299,21.7262518 C5.86912672,16.8112051 7.17085335,15.1739737 7.29972253,10.6669439 C7.40018132,7.1535304 7.26484674,3.17186497 7.21318907,3.55271368e-14 L10.838973,1.25330375e-11 C11.3501952,1.25330375e-11 13.25,2.71850688 13.1246628,6.06804308 C13.1246628,6.06804308 13.25,16.6709724 13.25,22.7548027 C13.25,27.8708271 13.1246628,32.8924867 13.1246628,38.0085111 L13.1246628,52.4536356 C13.1246628,57.0781025 12.2252707,55.8466632 11.2742259,55.8466632 L9.56859524,55.8466632 Z" id="Combined-Shape" fill="#47505E"></path>
                                <mask id="mask-6" fill="white">
                                    <use xlink:href="#path-5"></use>
                                </mask>
                                <use id="Combined-Shape" fill="#FFFFFF" xlink:href="#path-5"></use>
                            </g>
                            <g transform="translate(13.606953, 36.115252) rotate(18.000000) translate(-13.606953, -36.115252) translate(6.606953, 16.115252)">
                                <path d="M13.1246628,37.4668826 C13.1246628,34.1636919 13.1246628,30.1518448 13.1246628,27.1489365 C13.1246628,23.4946334 13.25,19.9077336 13.25,16.2534305 C13.25,11.9078374 13.1246628,4.33431648 13.1246628,4.33431648 C13.25,1.94179063 11.3501952,4.5481655e-13 10.838973,4.5481655e-13 C10.5231004,4.5481655e-13 10.2072279,4.54747351e-13 9.89135536,4.54747351e-13 L2.34750166,4.54747351e-13 L1.46157346,4.54747351e-13 C1.25492216,4.54747351e-13 0.0895964971,1.06992215 0.0895964971,3.67412258 C0.0895964971,3.67412258 -7.27595761e-12,8.6672661 -7.27595761e-12,11.2207335 C-7.27595761e-12,14.6630022 0.0895964971,17.6941875 0.0895964971,21.1364563 C0.0895964971,23.9566324 -7.27595761e-12,26.7204255 -7.27595761e-12,29.5406016 C-7.27595761e-12,31.5720989 0.0895964971,33.3015931 0.0895964971,35.6914765 C0.0895964971,38.0813599 -0.23968762,39.8904737 0.944161177,39.8904737 C2.12800997,39.8904737 4.2301297,39.8904737 5.33246037,39.8904737 C6.54417547,39.8904737 7.72571908,39.8904737 8.93743418,39.8904737 C9.70630758,39.8904737 10.5053525,39.8904737 11.2742259,39.8904737 C12.2252707,39.8904737 13.1246628,40.7700732 13.1246628,37.4668826 Z" id="Mask" fill="#697079"></path>
                                <path d="M9.60426914,39.8904737 C9.57631364,39.3966113 9.54374455,38.89186 9.50603001,38.3763023 C9.16672608,33.738017 6.79038784,26.9297454 6.63716759,21.7262518 C6.49244084,16.8112051 7.68423677,15.1739737 7.80222296,10.6669439 C7.89419801,7.1535304 7.77029242,3.17186497 7.72299724,2.13162821e-14 L11.042584,1.25187989e-11 C11.5106336,1.25187989e-11 13.25,1.94179063 13.1352475,4.33431648 C13.1352475,4.33431648 13.25,11.9078374 13.25,16.2534305 C13.25,19.9077336 13.1352475,23.4946334 13.1352475,27.1489365 L13.1352475,37.4668826 C13.1352475,40.7700732 12.311809,39.8904737 11.4410798,39.8904737 L9.60426914,39.8904737 Z" id="Combined-Shape" fill="#47505E"></path>
                                <path d="M0.0348979673,7.20587089 C0.0425411036,6.63304664 0.0505889611,6.0822918 0.0580901149,5.59307091 L8.28125,5.59307091 L8.28125,7.20587089 L0.0348979673,7.20587089 Z" id="Combined-Shape" fill="#FFFFFF"></path>
                            </g>
                        </g>
                    </g>
                </g>
            </g>
        </g>
        <g id="glass" transform="translate(17.000000, 25.000000)">
            <g id="Group-24" transform="translate(0.634271, 0.000000)">
                <path d="M12.8271473,64.6799431 C7.93311256,65.1629095 4.36140079,64.3560769 2.07852409,64.0062146 C-0.769111784,63.5698001 0.137066117,62.39954 0.137066117,61.8572343 C0.137066117,60.8801762 7.44535116,60.5513514 15.4682007,60.5513514 C23.490128,60.5513514 27.3529412,61.9340728 27.3529412,62.9111309 C27.3529412,63.8881891 23.8259484,63.5945294 12.8271473,64.6799431 Z" id="Fill-9" fill="#191E38"></path>
                <g id="Group-6" transform="translate(1.000000, 29.675676)">
                    <path d="M12.5127415,0.239685345 C11.8789587,0.0798951151 11.2171555,-3.93222278e-15 10.5273319,-3.256325e-14 C10.132486,-4.72279226e-14 9.76017844,0.395848598 9.65591514,0.395848598 C9.5124607,0.395848598 10.1956001,13.7296733 9.79936957,16.8700338 C9.40313907,20.0103944 9.65591514,23.1489198 9.65591514,25.155605 C9.65591514,27.1622903 9.65591514,30.1914577 9.65591514,30.1914577 C9.65591514,30.1914577 12.5127415,30.1914577 12.5127415,30.1914577 C12.5127415,30.1914577 12.8588235,27.5299399 12.8588235,22.2069044 C12.8588235,20.0998211 12.7434628,12.7774147 12.5127415,0.239685345 Z" id="Path-5-Copy" fill="#A6B8F3"></path>
                    <g id="Group-7" transform="translate(0.427110, 24.064865)">
                        <g transform="translate(0.000000, 0.078718)">
                            <mask id="mask-8" fill="white">
                                <use xlink:href="#path-7"></use>
                            </mask>
                            <use id="Mask" fill="#7993EC" xlink:href="#path-7"></use>
                            <path d="M0.0879347031,6.44242282 C2.33972081,8.04193245 4.71166818,6.83976477 7.10859289,6.83976477 C9.50551761,6.83976477 10.9940322,5.9766236 13.1022548,5.9766236 C15.2104774,5.9766236 15.6474684,5.17686878 16.8355798,5.9766236 C18.0236912,6.77637841 19.1553223,7.43330262 21.8823529,5.9766236 C24.6093836,4.51994458 23.8954235,3.60119549 22.5169443,2.14512015 C21.138465,0.689044805 10.4866414,-1.30020041 8.24970671,0.00519648616 C6.01277199,1.31059338 -2.1638514,4.84291319 0.0879347031,6.44242282 Z" id="Path-6" fill="#A6B8F3" mask="url(#mask-8)"></path>
                            <mask id="mask-10" fill="white">
                                <use xlink:href="#path-9"></use>
                            </mask>
                            <use id="Combined-Shape" fill="#A6B8F3" xlink:href="#path-9"></use>
                        </g>
                    </g>
                </g>
                <mask id="mask-12" fill="white">
                    <use xlink:href="#path-11"></use>
                </mask>
                <use id="Path-19-Copy" fill="#A6B8F3" xlink:href="#path-11"></use>
                <mask id="mask-14" fill="white">
                    <use xlink:href="#path-13"></use>
                </mask>
                <use id="Combined-Shape" fill="#7993EC" xlink:href="#path-13"></use>
                <mask id="mask-16" fill="white">
                    <use xlink:href="#path-15"></use>
                </mask>
                <use id="Combined-Shape" fill="#C0CDF5" opacity="0.335588728" xlink:href="#path-15"></use>
            </g>
            <path d="M14.5882353,16.4097266 C14.5882353,15.0800716 16.7799233,14.7950438 17.6575551,15.5764226 C18.0857673,15.9576713 18.7855972,16.7220799 18.7855972,18.3107265 C18.7855972,19.8993731 19.2517688,20.8291108 19.8513409,21.2975205 C21.2154027,22.3631799 22.5390517,21.8499325 22.5390517,22.9452251 C22.5390517,23.3150375 20.2748645,24.6112175 17.6530504,23.2030663 C15.0312363,21.7949151 14.5882353,17.3217315 14.5882353,16.4097266 Z" id="Path-4" fill="#C0CDF5" transform="translate(18.563643, 19.495114) scale(-1, 1) translate(-18.563643, -19.495114) "></path>
            <g id="mouse" transform="translate(0.000000, 48.667310)"></g>
        </g>
        <g id="glasses" transform="translate(63.086012, 81.845324) rotate(-18.000000) translate(-63.086012, -81.845324) translate(39.086012, 65.845324)">
            <path d="M18.0613593,15.8685606 C18.0613593,14.0131717 20.4497999,11.9012755 30.4222882,11.9012755 C40.3936301,11.9012755 42.7630194,12.5690799 42.7630194,14.4244688 C42.7630194,14.946809 39.2740678,17.8132564 34.2146796,18.4012755 C29.8309629,18.9107657 26.2117499,19.1300545 26.2117499,19.2560877 C26.2117499,21.1114766 30.8110584,22.5551319 17.1394304,24.616283 C11.0560926,25.5334143 6.61641642,24.0012758 3.77877613,23.3369033 C0.239134116,22.5081721 1.36552299,20.2859014 1.36552299,19.2560877 C1.36552299,17.9928943 5.57628034,17.3002797 11.4113086,16.9868336 C10.9532713,16.063542 18.0613593,16.4915716 18.0613593,15.8685606 Z" id="Combined-Shape" fill="#191E38" transform="translate(21.979084, 18.401275) scale(-1, 1) rotate(-21.000000) translate(-21.979084, -18.401275) "></path>
            <g id="Group-49" transform="translate(6.000000, 5.921211)">
                <mask id="mask-18" fill="white">
                    <use xlink:href="#path-17"></use>
                </mask>
                <use id="Mask" fill="#202637" xlink:href="#path-17"></use>
                <path d="M8.62320528,-0.917479707 C7.88377327,-0.511082817 4.23166174,-0.979420185 2.35673004,2.324909 C0.926886373,4.84482703 1.24865409,6.45420373 1.05014245,7.01713426 C0.591325606,8.3182268 0.916663894,13.4656236 1.21547252,12.423475 C1.51428115,11.3813264 2.8471301,9.45412973 3.81050304,9.45412973 C4.32668407,9.45412973 4.37703084,7.79663011 4.88976252,6.67228338 C5.33396609,5.69820892 6.28075117,5.28864598 6.27573214,4.69346777 C6.26491977,3.41129212 9.92653634,-1.63379936 8.62320528,-0.917479707 Z" id="Path-21" fill="#191E38" mask="url(#mask-18)" transform="translate(4.862705, 5.787509) scale(-1, 1) rotate(103.000000) translate(-4.862705, -5.787509) "></path>
            </g>
            <path d="M14.9893314,16.0526773 C19.5692174,16.0526773 23.1786628,13.8580462 23.1786628,11.3869441 C23.1786628,9.91052334 22.1065827,8.78613208 19.770567,7.88104268 C17.7821185,7.11061821 16.3440048,6.72121093 14.9893314,6.72121093 C12.5704354,6.72121093 10.3292954,7.33820912 8.77421026,8.38077556 C7.48927914,9.24222428 6.8,10.3067858 6.8,11.3869441 C6.8,12.4923523 7.91688046,13.6456116 9.93307361,14.6952467 C11.7340182,15.632823 13.1585366,16.0526773 14.9893314,16.0526773 Z" id="Oval-5" stroke="#E6BD00" stroke-width="1.6"></path>
            <g id="Group-49" transform="translate(23.978663, 16.852677)">
                <mask id="mask-20" fill="white">
                    <use xlink:href="#path-19"></use>
                </mask>
                <use id="Mask" fill="#202637" xlink:href="#path-19"></use>
                <path d="M7.76525272,-2.38196301 C7.02582071,-1.97556612 3.37370918,-2.44390349 1.49877749,0.860425693 C0.0689338162,3.38034372 0.390701532,4.98972043 0.192189896,5.55265095 C-0.266626951,6.85374349 0.0587113366,12.0011403 0.357519962,10.9589917 C0.656328588,9.91684305 1.98917755,7.98964643 2.95255048,7.98964643 C3.46873151,7.98964643 3.51907828,6.3321468 4.03180996,5.20780007 C4.47601353,4.23372561 5.42279861,3.82416267 5.41777958,3.22898446 C5.40696721,1.94680881 9.06858378,-3.09828267 7.76525272,-2.38196301 Z" id="Path-21" fill="#191E38" mask="url(#mask-20)" transform="translate(4.004753, 4.323025) scale(-1, 1) rotate(85.000000) translate(-4.004753, -4.323025) "></path>
            </g>
            <path d="M32.9679943,26.9841436 C34.0058322,26.9841436 34.8729231,26.8053328 36.5596856,26.323669 C39.455229,25.4968316 41.1573257,23.9841371 41.1573257,22.3184104 C41.1573257,21.2241168 40.3906665,20.4669955 38.2837613,19.389521 C38.0698296,19.2799279 37.9437084,19.2152965 37.852547,19.1687664 C37.6854099,19.0834571 37.5461998,19.0130924 37.4111004,18.945848 C35.6470033,18.0677864 34.3585285,17.6526773 32.9679943,17.6526773 C28.3881083,17.6526773 24.7786628,19.8473083 24.7786628,22.3184104 C24.7786628,23.7858933 26.2068713,25.4684844 28.3006986,26.3564088 C29.4460836,26.8421295 30.6700857,26.9841436 32.9679943,26.9841436 Z" id="Oval-5" stroke="#E6BD00" stroke-width="1.6"></path>
            <path d="M38.4119433,25.2941456 C38.4048131,25.2944274 38.3965614,25.294584 38.3870275,25.294584 C38.3909304,25.294584 38.3947245,25.2945796 38.3984243,25.2945724 L38.4119433,25.2941456 Z M40.9379444,25.5394013 C41.05481,25.5516896 41.05481,25.5516896 41.1718715,25.5639349 C42.539998,25.7068289 43.3534018,25.7785291 43.7021405,25.7785291 C44.4407371,25.7785291 45.2284382,23.8258461 46.3537655,23.1183877 C47.1039837,22.6467488 47.5493219,23.2997843 47.6897802,25.0774943 C47.003183,26.0267468 45.4941493,27.4547104 44.4111903,27.4547104 C44.0090033,27.4547104 38.6623937,26.8326016 38.4922205,26.8326016 C38.114501,26.8326016 32.760062,23.0558641 22.2248321,16.2581987 C18.5372864,13.8788769 13.9267288,11.4250878 8.71576205,8.04140822 L10.102762,7.15653366 C15.5359118,10.6844852 20.2905155,13.5121443 24.1734538,16.0151141 C26.973906,17.8203057 29.2746399,19.5467346 31.2686662,20.8187291 C33.6467854,22.3357373 35.4671887,23.4950406 36.6965454,24.2525684 C37.3088328,24.629859 37.7613874,24.890543 38.0854274,25.0774943 C38.2433408,25.1686007 38.3653588,25.2361294 38.4493494,25.27911 C38.6138066,25.294149 38.5093965,25.2837735 40.9379444,25.5394013 Z" id="Path-9" fill="#FFDD0F" fill-rule="nonzero"></path>
            <path d="M38.3966646,25.7801713 L37.9066652,26.5668562 C35.1723742,25.3076602 33.1549958,24.3403173 31.8545301,23.6648276 C28.515277,21.930348 25.5230231,20.1232668 22.7793103,18.6334441 C18.6828533,16.4090878 15.2101658,14.6754887 12.5246678,13.2057415 C6.98974333,10.1765308 5.25057387,9.04796422 7.30715944,9.82004191 L7.79715887,9.03335701 C8.82294956,9.50257941 9.62642338,9.89879586 10.2075803,10.2220063 C14.5489339,12.6364504 18.2881046,14.8581414 20.7934387,16.2292865 C23.801839,17.875755 29.669581,21.0593833 38.3966646,25.7801713 Z" id="Path-26" fill="#FFDD0F" fill-rule="nonzero"></path>
            <path d="M6.35233206,0.091754555 C5.53840081,1.81688154 5.52304808,3.29700497 6.30627385,4.53212485 C7.08949963,5.76724473 8.19497628,7.03574356 9.62270382,8.33762137 C10.5043737,8.07441184 10.8507846,7.77827017 10.6619364,7.44919636 C10.1126595,6.49206441 8.40648458,4.03133357 8.40648458,3.57862288 C8.40648458,2.54934989 8.02695447,2.35087678 8.41752684,1.03025815 C8.67790842,0.149845723 7.98951016,-0.162988807 6.35233206,0.091754555 Z" id="Path-27" fill="#FFDD0F"></path>
            <path d="M17.7028691,16.5803917 L18.5926212,16.2140072 C18.867997,16.8016057 19.2059078,17.5344704 19.5637167,18.022063 C20.178044,18.8592177 20.8803282,19.3430663 21.6371375,19.797937 C22.6439374,20.4030616 23.6822868,20.5872391 25.019288,20.5872391 L25.019288,21.4981946 C23.639377,21.4981946 21.9773121,21.4250288 20.901155,20.8596806 C19.9648704,20.367813 18.8285529,19.4020801 18.2540379,18.4275005 C17.8944651,17.8175383 18.0469333,17.314558 17.7028691,16.5803917 Z" id="Path-28" fill="#E6BD00" fill-rule="nonzero"></path>
        </g>
    </g>
</svg>