<?xml version="1.0" encoding="UTF-8"?>
<svg width="100px" height="100px" viewBox="0 0 100 100" version="1.1" xmlns="http://www.w3.org/2000/svg" xmlns:xlink="http://www.w3.org/1999/xlink">
    <!-- Generator: Sketch 52.5 (67469) - http://www.bohemiancoding.com/sketch -->
    <title>personality/exciting</title>
    <desc>Created with Sketch.</desc>
    <defs>
        <rect id="path-1" x="0" y="0" width="100" height="100"></rect>
        <path d="M23.3661827,84.6282954 L9.61905626,71.9386402 C1.49219976,58.4739579 -0.507954083,51.9668347 0.10181488,44.4443874 C0.775306085,38.7442577 1.74690083,31.7818599 6.44664247,25.4099046 C11.7410272,18.0589605 15.2551352,15.977903 23.3661827,10.6053069 C30.7781993,4.5096504 42.3408628,2.6512284 48.745493,1.08806551 C64.5086552,-2.78114256 70.4406706,4.35857663 76.2397459,11.6627782 C82.6922799,19.1251904 86.5910192,21.7415265 88.9294011,30.6972609 C90.461256,38.8288678 92.4740794,44.8768456 92.1018149,51.8466862 C91.0854633,66.1149793 86.5216296,68.3319488 79.4121597,78.2834678 C75.4556628,83.2041189 72.7287372,86.5536876 64.607562,88.8581805 C55.0194802,90.7778544 48.488968,92.7806461 41.3431942,92.0305942 C36.4624429,90.945215 31.2645433,87.6714249 23.3661827,84.6282954 Z" id="path-3"></path>
    </defs>
    <g id="personality/exciting" stroke="none" stroke-width="1" fill="none" fill-rule="evenodd">
        <g id="tab02-illu-icon02">
            <mask id="mask-2" fill="white">
                <use xlink:href="#path-1"></use>
            </mask>
            <g id="Mask"></g>
            <g id="Group-10" mask="url(#mask-2)">
                <g transform="translate(4.000000, 3.000000)">
                    <mask id="mask-4" fill="white">
                        <use xlink:href="#path-3"></use>
                    </mask>
                    <use id="Mask" stroke="none" fill="#202637" fill-rule="evenodd" xlink:href="#path-3"></use>
                    <path d="M47.3032482,79.0267497 C50.8766184,76.8369365 49.0621401,72.5583234 57.0715456,69.0672571 C65.0809512,65.5761908 64.0370925,66.8642714 66.7858493,70.272017 C69.534606,73.6797625 70.2141459,73.2300122 72.7102989,72.3494634 C75.2064518,71.4689146 75.0107728,71.5737575 80.0841965,74.5515769 C85.1576202,77.5293963 93.3668894,79.0267497 83.0385941,79.0267497 C72.7102989,79.0267497 43.729878,81.2165629 47.3032482,79.0267497 Z" id="Path-18" stroke="none" fill="#343A4B" fill-rule="evenodd" mask="url(#mask-4)"></path>
                    <path d="M10.3032482,39.0267497 C13.8766184,36.8369365 12.0621401,32.5583234 20.0715456,29.0672571 C28.0809512,25.5761908 27.0370925,26.8642714 29.7858493,30.272017 C32.534606,33.6797625 33.2141459,33.2300122 35.7102989,32.3494634 C38.2064518,31.4689146 38.0107728,31.5737575 43.0841965,34.5515769 C48.1576202,37.5293963 56.3668894,39.0267497 46.0385941,39.0267497 C35.7102989,39.0267497 6.72987801,41.2165629 10.3032482,39.0267497 Z" id="Path-18" stroke="none" fill="#343A4B" fill-rule="evenodd" mask="url(#mask-4)" transform="translate(30.500000, 33.500000) scale(-1, 1) translate(-30.500000, -33.500000) "></path>
                    <path d="M44.2874989,27.5713099 C42.2956934,27.632228 41.0779519,27.8769144 40.6342742,28.305369 C40.0766431,28.8438671 41.0301993,65.6916715 40.6317024,74.4284667 C40.2332056,83.1652619 40.4874275,91.8969517 40.4874275,97.4797494 C40.4874275,103.062547 40.4874275,111.489992 40.4874275,111.489992 C40.4874275,111.489992 43.3605942,111.489992 43.3605942,111.489992 C43.3605942,111.489992 43.7086557,104.085385 43.7086557,89.2761711 C43.7086557,83.4140559 43.9016034,62.8457689 44.2874989,27.5713099 Z" id="Path-5-Copy-8" stroke="none" fill="#58606C" fill-rule="evenodd" mask="url(#mask-4)" transform="translate(42.347514, 69.530651) rotate(44.000000) translate(-42.347514, -69.530651) "></path>
                </g>
            </g>
            <g id="rocket" mask="url(#mask-2)">
                <g transform="translate(51.694658, 47.167143) rotate(44.000000) translate(-51.694658, -47.167143) translate(34.194658, 2.667143)">
                    <g id="Group-69" transform="translate(14.000000, 66.000000)">
                        <path d="M5.2768177,0.773036524 L6.51624912,0.610833685 C7.03412919,4.56808148 5.41853937,7.2216742 1.76593242,8.38309579 L1.38715634,7.19186588 C4.45307432,6.21699414 5.71747719,4.14022303 5.2768177,0.773036524 Z" id="Path-50" fill="#C9CBD1" fill-rule="nonzero" transform="translate(3.998931, 4.496965) scale(-1, 1) rotate(-213.000000) translate(-3.998931, -4.496965) "></path>
                        <path d="M2.4828044,6.11273458 C1.52263136,7.55365362 0.698437504,7.64138485 0.141722713,10.3298154 C-0.414992079,13.018246 0.814259777,15.8509015 1.31226356,18.0710998 C1.81026733,20.2912982 2.4828044,21.2290919 2.4828044,21.6883516 C2.4828044,22.1476113 3.4922499,20.2444417 4.00897081,19.3897268 C4.52569172,18.5350119 4.93266943,21.3583625 4.93266943,23 C6.63736852,21.3583625 9.94630207,17.0719939 9.94630207,15.2052129 C9.94630207,13.3384318 10.423989,6.77503893 8.52987886,5.74685546 C6.63576876,4.71867199 3.44297744,4.67181554 2.4828044,6.11273458 Z" id="Path-45" fill="#FFDD0F"></path>
                        <path d="M3.40635829,5.67588881 C2.86247843,6.55112093 2.39562254,6.60440997 2.08027733,8.23739611 C1.76493213,9.87038224 2.46122884,11.5909723 2.74331781,12.9395484 C3.02540679,14.2881245 3.40635829,14.857752 3.40635829,15.1367121 C3.40635829,15.4156721 3.97814802,14.2596633 4.27083912,13.7404988 C4.56353021,13.2213344 5.44974599,18.002849 5.44974599,19 C6.41535476,18.002849 8,11.9278817 8,10.7939757 C8,9.66006969 7.9045583,6.07818069 6.83165967,5.45364928 C5.75876104,4.82911787 3.95023816,4.80065668 3.40635829,5.67588881 Z" id="Path-45" fill="#E6BD00"></path>
                    </g>
                    <g id="Group-64" transform="translate(-0.000000, -0.000000)">
                        <path d="M20.8840862,65.6361066 C21.2007324,66.2148558 21.3586413,66.8648701 21.3037213,67.2364333 C21.2318234,67.7228619 20.468567,68.06691 19.0139522,68.2685774 C17.5158736,67.3872177 16.7971728,66.7412814 16.8578498,66.3307684 C16.881871,66.1682523 17.0059104,65.9466217 17.195704,65.7125158 C14.9433668,65.6486034 11.7516598,65.3813431 7.62058308,64.9107348 C6.68149695,64.8037502 5.94550089,64.053974 5.85595748,63.1130646 C5.44136547,58.7565909 5.19329424,55.5721636 5.11174379,53.5597826 C4.94394963,49.4192073 5.05581266,46.2412532 5.11174379,43.1603261 C5.13962012,41.6247781 5.11174379,39.7779591 5.11174379,38.515625 C5.11174379,33.6189473 5.32102782,29.8471885 5.73959588,27.2003485 C5.78540458,26.9106745 4.5967371,26.8994526 2.17359345,27.1666827 L2.17358933,27.1666454 C1.5878836,27.2312384 1.06071229,26.8087931 0.996119255,26.2230874 C0.973741815,26.020177 1.01004526,25.8151063 1.10072165,25.6322097 C2.41113128,22.9890808 3.27637375,21.1758216 3.69644906,20.1924319 C5.30407431,16.4290065 8.0876763,12.2835889 9.14423707,10.0478289 C10.6893959,6.77815955 13.7039746,3.42888327 18.1879731,2.79101187e-11 C20.9980948,3.08881539 23.481717,5.75010608 25.6388398,7.98387206 C26.9821624,9.37492341 30.9163445,14.908425 32.3765059,18.5598209 C32.810437,19.6449436 34.1920588,23.3307347 34.6494513,25.03555 C34.9712777,26.2350764 30.3391421,26.0855596 30.3730246,26.4655859 C30.8604642,31.9327243 31.2007833,36.5444754 31.2007833,39.3811141 C31.2007833,40.4710628 31.1629853,42.1225119 31.2007833,44.5611413 C31.2398743,47.0831895 31.3521839,50.4409821 31.2007833,54.5081522 C31.1404996,56.1275904 30.9404368,58.7261315 30.6005949,62.3037755 C30.4661784,63.7189044 29.3570549,64.84543 27.9441907,65.0018664 C25.1259675,65.3139082 22.7725993,65.5253216 20.8840862,65.6361066 Z" id="Path" fill="#91A7F0"></path>
                        <path d="M20.8946423,65.6555355 C19.5670945,65.7393114 18.1454144,65.7663486 17.1534302,65.7658559 C17.1671286,65.7481622 17.181225,65.7303753 17.195704,65.7125158 C16.8037729,65.7013943 16.3833978,65.6841156 15.9345789,65.6606794 C17.824643,63.8496872 19.7647549,62.5684795 20.9547031,61.4588348 C23.5257194,59.0613234 28.4540026,55.4908399 31.2422087,53.1682377 C31.2313936,53.605856 31.217743,54.0525534 31.2007833,54.5081522 C31.1654759,55.4566374 31.08222,56.7409845 30.9510157,58.3611936 C28.7058245,60.6369481 25.0641319,64.4073137 24.4000419,65.0265876 C24.141913,65.2672967 23.2900114,65.4337823 22.218107,65.5468858 C21.7502752,65.5816392 21.3056016,65.6113794 20.8840862,65.6361066 C20.8876247,65.6425742 20.8911434,65.6490506 20.8946423,65.6555355 Z M8.9451464,65.0581556 C8.5149112,65.0114584 8.07339009,64.9623182 7.62058308,64.9107348 C6.68149695,64.8037502 5.94550089,64.053974 5.85595748,63.1130646 C5.79458378,62.4681586 5.73685923,61.8489368 5.68278382,61.2553993 C7.86956871,59.1289658 12.3335814,55.7714532 14.4231617,53.822888 C17.3964977,51.0502074 23.5225659,46.7087326 25.8451418,44.5428955 C27.1402307,43.3352056 29.3819761,41.6710807 31.1970446,40.1179879 C31.1889065,41.1291318 31.172227,42.4925408 31.1970863,44.3078859 L26.0058986,49.1487467 C24.8213692,50.2533383 18.3565963,56.2818366 17.4791671,57.1000525 L8.9451464,65.0581556 Z M5.20536083,55.3082168 C5.1635397,54.6506892 5.13233402,54.0678778 5.11174379,53.5597826 C5.04019493,51.794206 5.01949452,50.2036572 5.02362387,48.7210256 C7.17068248,46.9153601 9.85449817,44.8458905 11.3125409,43.4862436 C14.1410712,40.8485964 20.002099,36.7542758 22.2115623,34.693918 C24.4210255,32.6335602 29.5601397,29.2124349 29.9936228,27.4370292 C30.0701703,27.1235153 30.2080515,26.9281673 30.4072663,26.8509851 C30.5505765,28.4697471 30.6803883,30.010454 30.7915725,31.4486884 L22.480014,39.1993421 C21.3531728,40.2501385 15.2032434,45.9850404 14.3685463,46.7634081 L5.20536083,55.3082168 Z M5.09811567,43.867515 C5.10288456,43.6309645 5.10747693,43.395363 5.11174379,43.1603261 C5.13962012,41.6247781 5.11174379,39.7779591 5.11174379,38.515625 C5.11174379,38.2335401 5.11243832,37.9551884 5.11382739,37.6805698 C5.48293707,37.3648985 5.81792484,37.0693465 6.10529622,36.8013684 C8.93382653,34.1637212 14.7948543,30.0694006 17.0043176,28.0090427 C19.2137809,25.9486849 24.352895,22.5275597 24.7863781,20.7521539 C25.0753668,19.5685501 26.2385296,20.0691364 28.2758665,22.2539127 C21.6916958,28.3937512 18.0239968,31.8139359 17.2727693,32.5144669 C16.1459282,33.5652632 9.99599873,39.3001652 9.16130157,40.0785329 L5.09811567,43.867515 Z" id="Combined-Shape" fill="#597EFE"></path>
                        <path d="M1.18668238,25.4587257 C2.44903954,22.9095878 3.28562843,21.1541565 3.69644906,20.1924319 C5.30407431,16.4290065 8.0876763,12.2835889 9.14423707,10.0478289 C10.6893959,6.77815955 13.7039746,3.42888327 18.1879731,2.96900282e-11 C20.9980948,3.08881539 23.481717,5.75010608 25.6388398,7.98387206 C26.9821624,9.37492341 30.9163445,14.908425 32.3765059,18.5598209 C32.5871765,19.0866408 33.0212216,20.2264483 33.4644322,21.4549536 C33.3023316,25.250756 32.1187153,26.1036005 31.2337144,26.1036005 C30.281767,26.1036005 26.6741441,27.25 24.6050954,27.25 C22.5360466,27.25 20.7530446,27.25 17.8516199,27.25 C14.9501953,27.25 13.0899012,27.25 10.3800551,27.25 C8.78325185,27.25 5.71879426,26.6529086 1.18668238,25.4587257 Z" id="Combined-Shape" fill="#A6B8F3"></path>
                        <path d="M13.2464671,65.4752662 C11.7868473,65.3546572 10.1274835,65.190809 8.26837561,64.9837218 C8.07976135,62.2934015 8.76551011,56.3724755 8.76551011,53.439538 C8.76551011,49.5720109 9.76832491,42.4932065 9.76832491,39.4721467 C9.76832491,36.451087 10.7711397,30.359375 9.76832491,28.8315217 C8.76551011,27.3036685 14.4917279,14.78125 14.4917279,13.091712 C14.4917279,11.9653533 15.733025,7.97350543 18.2156193,1.11616848 C17.2709386,7.59442935 16.7985983,11.5862772 16.7985983,13.091712 C16.7985983,15.3498641 14.4917279,19.8349185 14.4917279,21.6745924 C14.4917279,22.9010417 14.076641,24.7774004 13.2464671,27.3036685 C13.2464671,36.3063859 13.2464671,41.3213315 13.2464671,42.3485054 C13.2464671,43.8892663 13.2464671,52.2982337 13.2464671,53.439538 L13.2464671,65.4752662 Z" id="Combined-Shape" fill="#FFFFFF" opacity="0.244678442"></path>
                    </g>
                </g>
            </g>
        </g>
        <g id="Group" transform="translate(13.000000, 6.000000)">
            <path d="M74.8615385,61.7521721 C75.337353,61.7521721 75.7230769,61.359935 75.7230769,60.8760861 C75.7230769,60.6167366 75.6711888,60.3867653 75.4950721,60.2263548 C75.342621,60.0874994 75.0823101,60 74.8615385,60 C74.3857239,60 74,60.3922371 74,60.8760861 C74,61.1130347 74.114374,61.3364611 74.2646635,61.4941619 C74.4212651,61.658486 74.6187379,61.7521721 74.8615385,61.7521721 Z" id="Oval-9" fill="#FFDD0F"></path>
            <path d="M82.5159801,42.0514636 C83.3532328,42.0514636 84.0319602,41.3683702 84.0319602,40.5257318 C84.0319602,40.0740665 83.9406568,39.6735641 83.6307584,39.3942041 C83.3625024,39.152383 82.9044543,39 82.5159801,39 C81.6787274,39 81,39.6830934 81,40.5257318 C81,40.9383854 81.2012547,41.3274896 81.4657071,41.6021305 C81.7412663,41.8883062 82.0887435,42.0514636 82.5159801,42.0514636 Z" id="Oval-9" fill="#FFDD0F"></path>
            <path d="M12.5159801,20.0514636 C13.3532328,20.0514636 14.0319602,19.3683702 14.0319602,18.5257318 C14.0319602,18.0740665 13.9406568,17.6735641 13.6307584,17.3942041 C13.3625024,17.152383 12.9044543,17 12.5159801,17 C11.6787274,17 11,17.6830934 11,18.5257318 C11,18.9383854 11.2012547,19.3274896 11.4657071,19.6021305 C11.7412663,19.8883062 12.0887435,20.0514636 12.5159801,20.0514636 Z" id="Oval-9-Copy" fill="#FFDD0F"></path>
            <path d="M71.8977897,51.0774754 C72.0258918,50.5163724 72.4592946,50.0784384 73.0145919,49.9489969 L75.2555324,49.4260991 C75.3401814,49.4067114 75.4,49.3308712 75.4,49.2430563 C75.4,49.1552414 75.3401814,49.0794013 75.2555324,49.0594434 L73.0145919,48.5371158 C72.4592946,48.4076743 72.0258918,47.9697403 71.8977897,47.4092075 L71.3803023,45.145978 C71.3611152,45.060444 71.2860598,45 71.1991535,45 C71.1122472,45 71.0371918,45.060444 71.0174404,45.145978 L70.5005173,47.4092075 C70.3724152,47.9703105 69.9390124,48.4076743 69.3842795,48.5371158 L67.1444676,49.0594434 C67.0598186,49.0794013 67,49.1552414 67,49.2430563 C67,49.3308712 67.0598186,49.4067114 67.1444676,49.4260991 L69.3842795,49.9489969 C69.9390124,50.0784384 70.3724152,50.5163724 70.5005173,51.0774754 L71.0174404,53.3418454 C71.0371918,53.4273794 71.1122472,53.4878234 71.1991535,53.4878234 C71.2860598,53.4878234 71.3611152,53.4273794 71.3803023,53.3418454 L71.8977897,51.0774754 Z" id="Stroke-121-Copy" fill="#FFDD0F"></path>
            <path d="M19.8977897,6.07747541 C20.0258918,5.51637241 20.4592946,5.07843836 21.0145919,4.94899692 L23.2555324,4.4260991 C23.3401814,4.40671139 23.4,4.33087125 23.4,4.24305635 C23.4,4.15524145 23.3401814,4.07940131 23.2555324,4.05944337 L21.0145919,3.53711578 C20.4592946,3.40767434 20.0258918,2.96974029 19.8977897,2.40920751 L19.3803023,0.145978017 C19.3611152,0.0604440227 19.2860598,0 19.1991535,0 C19.1122472,0 19.0371918,0.0604440227 19.0174404,0.145978017 L18.5005173,2.40920751 C18.3724152,2.97031051 17.9390124,3.40767434 17.3842795,3.53711578 L15.1444676,4.05944337 C15.0598186,4.07940131 15,4.15524145 15,4.24305635 C15,4.33087125 15.0598186,4.40671139 15.1444676,4.4260991 L17.3842795,4.94899692 C17.9390124,5.07843836 18.3724152,5.51637241 18.5005173,6.07747541 L19.0174404,8.34184536 C19.0371918,8.42737935 19.1122472,8.48782338 19.1991535,8.48782338 C19.2860598,8.48782338 19.3611152,8.42737935 19.3803023,8.34184536 L19.8977897,6.07747541 Z" id="Stroke-121-Copy-3" fill="#FFDD0F"></path>
            <path d="M62.2651931,59.0726115 C62.3505946,58.6966075 62.6395297,58.4031411 63.0097279,58.3164003 L64.5036883,57.9659983 C64.5601209,57.9530063 64.6,57.9021847 64.6,57.8433385 C64.6,57.7844924 64.5601209,57.7336707 64.5036883,57.7202966 L63.0097279,57.3702767 C62.6395297,57.2835359 62.3505946,56.9900695 62.2651931,56.6144477 L61.9202015,55.0978222 C61.9074101,55.0405045 61.8573732,55 61.7994357,55 C61.7414982,55 61.6914612,55.0405045 61.6782936,55.0978222 L61.3336782,56.6144477 C61.2482768,56.9904516 60.9593416,57.2835359 60.5895197,57.3702767 L59.0963117,57.7202966 C59.0398791,57.7336707 59,57.7844924 59,57.8433385 C59,57.9021847 59.0398791,57.9530063 59.0963117,57.9659983 L60.5895197,58.3164003 C60.9593416,58.4031411 61.2482768,58.6966075 61.3336782,59.0726115 L61.6782936,60.5900012 C61.6914612,60.6473189 61.7414982,60.6878234 61.7994357,60.6878234 C61.8573732,60.6878234 61.9074101,60.6473189 61.9202015,60.5900012 L62.2651931,59.0726115 Z" id="Stroke-121-Copy-2" fill="#91A7F0"></path>
            <path d="M42.2651931,8.07261146 C42.3505946,7.69660755 42.6395297,7.40314108 43.0097279,7.31640034 L44.5036883,6.96599832 C44.5601209,6.95300632 44.6,6.90218465 44.6,6.84333851 C44.6,6.78449237 44.5601209,6.7336707 44.5036883,6.72029658 L43.0097279,6.37027668 C42.6395297,6.28353594 42.3505946,5.99006948 42.2651931,5.61444768 L41.9202015,4.09782216 C41.9074101,4.04050449 41.8573732,4 41.7994357,4 C41.7414982,4 41.6914612,4.04050449 41.6782936,4.09782216 L41.3336782,5.61444768 C41.2482768,5.99045159 40.9593416,6.28353594 40.5895197,6.37027668 L39.0963117,6.72029658 C39.0398791,6.7336707 39,6.78449237 39,6.84333851 C39,6.90218465 39.0398791,6.95300632 39.0963117,6.96599832 L40.5895197,7.31640034 C40.9593416,7.40314108 41.2482768,7.69660755 41.3336782,8.07261146 L41.6782936,9.59000122 C41.6914612,9.64731889 41.7414982,9.68782338 41.7994357,9.68782338 C41.8573732,9.68782338 41.9074101,9.64731889 41.9202015,9.59000122 L42.2651931,8.07261146 Z" id="Stroke-121-Copy-4" fill="#91A7F0"></path>
            <path d="M4.5479476,48.6478617 C4.66689956,48.1264228 5.06934498,47.7194461 5.58497817,47.5991548 L7.66585153,47.1132204 C7.74445415,47.0952032 7.8,47.0247241 7.8,46.9431168 C7.8,46.8615095 7.74445415,46.7910305 7.66585153,46.7724833 L5.58497817,46.2870788 C5.06934498,46.1667875 4.66689956,45.7598108 4.5479476,45.2389018 L4.06742358,43.1356589 C4.04960699,43.0561713 3.97991266,43 3.89921397,43 C3.81851528,43 3.74882096,43.0561713 3.73048035,43.1356589 L3.25048035,45.2389018 C3.13152838,45.7603407 2.72908297,46.1667875 2.2139738,46.2870788 L0.134148472,46.7724833 C0.0555458515,46.7910305 0,46.8615095 0,46.9431168 C0,47.0247241 0.0555458515,47.0952032 0.134148472,47.1132204 L2.2139738,47.5991548 C2.72908297,47.7194461 3.13152838,48.1264228 3.25048035,48.6478617 L3.73048035,50.7521645 C3.74882096,50.8316521 3.81851528,50.8878234 3.89921397,50.8878234 C3.97991266,50.8878234 4.04960699,50.8316521 4.06742358,50.7521645 L4.5479476,48.6478617 Z" id="Stroke-121-Copy-5" fill="#FFFFFF"></path>
        </g>
    </g>
</svg>