<?xml version="1.0" encoding="UTF-8"?>
<svg width="100px" height="100px" viewBox="0 0 100 100" version="1.1" xmlns="http://www.w3.org/2000/svg" xmlns:xlink="http://www.w3.org/1999/xlink">
    <!-- Generator: Sketch 52.5 (67469) - http://www.bohemiancoding.com/sketch -->
    <title>personality/thoughtful</title>
    <desc>Created with Sketch.</desc>
    <defs>
        <rect id="path-1" x="0" y="0" width="100" height="100"></rect>
        <path d="M23.3661827,84.6282954 L9.61905626,71.9386402 C1.49219976,58.4739579 -0.507954083,51.9668347 0.10181488,44.4443874 C0.775306085,38.7442577 1.74690083,31.7818599 6.44664247,25.4099046 C11.7410272,18.0589605 15.2551352,15.977903 23.3661827,10.6053069 C30.7781993,4.5096504 42.3408628,2.6512284 48.745493,1.08806551 C64.5086552,-2.78114256 70.4406706,4.35857663 76.2397459,11.6627782 C82.6922799,19.1251904 86.5910192,21.7415265 88.9294011,30.6972609 C90.461256,38.8288678 92.4740794,44.8768456 92.1018149,51.8466862 C91.0854633,66.1149793 86.5216296,68.3319488 79.4121597,78.2834678 C75.4556628,83.2041189 72.7287372,86.5536876 64.607562,88.8581805 C55.0194802,90.7778544 48.488968,92.7806461 41.3431942,92.0305942 C36.4624429,90.945215 31.2645433,87.6714249 23.3661827,84.6282954 Z" id="path-3"></path>
        <path d="M2.5741498,75.1003187 C-0.889920922,71.7551045 -0.333113505,53.2560455 5.86174098,35.6687667 C10.7333728,21.8381358 18.2085618,8.41529103 19.0000224,5.9690355 C21.4373892,-1.56440674 23.4123729,0.427979979 27.0624035,0.427979979 C30.712434,0.427979979 42.9929407,4.71842409 38.7436572,10.5854084 C36.5913826,13.5570531 32.5562328,19.2370476 31.255948,23.1791048 C29.9637688,27.0965884 27.7150392,33.9053875 27.1190121,45.2241185 C26.8523056,50.2889537 27.2932751,58.4385403 28.4419205,69.6728781 C14.430893,76.4143571 5.80830278,78.223504 2.5741498,75.1003187 Z" id="path-5"></path>
        <path d="M29.3139723,21.4037618 C23.7647957,19.3328784 20.2565907,17.8217051 18.7893572,16.8702419 C10.3552622,11.4009484 5.52931363,6.91686659 4.42158293,7.48620745 C2.32639868,8.56307027 2.07364295,11.0303465 4.63406626,13.4144429 C6.00908909,14.694773 8.21559946,16.9748337 10.5867899,18.7834289 C12.38768,20.1570348 15.613138,22.556768 20.2631638,25.9826284 C23.4426676,26.2623871 25.650128,26.0315301 26.8855453,25.2900573 C28.1209625,24.5485846 28.9304381,23.2531527 29.3139723,21.4037618 Z" id="path-7"></path>
        <path d="M27.2433428,20.8818577 C14.3183761,10.0246034 7.15749808,4.95493054 5.76070858,5.67283909 C3.66552432,6.74970191 4.05731713,8.06450658 7.82511493,12.5479184 C10.3369801,15.5368595 15.2685729,19.737329 22.6198934,25.1493268 C27.6150508,26.7172198 29.6950031,26.6743778 28.8597501,25.0208009 C28.0244972,23.3672239 27.4856948,21.9875762 27.2433428,20.8818577 Z" id="path-9"></path>
        <path d="M24.8142282,17.5971932 C12.7391976,7.67151806 6.00328762,3.06763475 4.60649812,3.7855433 C2.51131386,4.86240612 1.82066355,4.22197357 5.58846135,8.70538534 C8.10032655,11.6943265 13.1872848,15.7996987 20.8493361,21.0215018 C25.5337626,22.7795894 27.4583495,22.8318448 26.6230966,21.1782678 C25.7878437,19.5246909 25.1848875,18.3309994 24.8142282,17.5971932 Z" id="path-11"></path>
        <path d="M26.6027852,19.3316051 C13.2946968,9.39322808 5.9422579,4.78299385 4.54546839,5.5009024 C2.45028414,6.57776522 2.81510571,7.33211241 6.58290351,11.8155242 C9.09476871,14.8044654 13.9990995,18.5327527 21.2958958,23.0003861 C26.533701,24.8998429 28.7349771,25.0227828 27.8997242,23.3692059 C27.0644713,21.715629 26.6321583,20.369762 26.6027852,19.3316051 Z" id="path-13"></path>
        <path d="M13.5549471,8.04414641 C14.9896863,10.8845455 13.5168165,9.13217215 13.077031,9.17309197 C12.842911,9.19487565 12.3534975,9.1006788 11.6087904,8.89050144 C11.0833656,9.24122965 10.2832084,9.43463757 9.20831874,9.47072519 C8.08225929,9.50853075 5.28105403,10.1557125 4.92480586,10.5155173 C4.41466148,11.0307546 3.87440433,12.0135896 3.76451298,14.8994822 C3.72497051,15.9379199 2.16529148,17.0300189 0.984510911,19.0478329 C0.197323863,20.3930423 -0.0927661479,21.8351212 0.11424088,23.3740697 C1.10514314,27.1508631 2.7086648,29.6139615 4.92480586,30.7633651 C8.24901744,32.4874705 8.93110819,33.7205966 12.3527511,35.2833625 C14.6338463,36.3252063 17.3516711,36.6421308 20.5062253,36.234136 C22.6831987,34.7998308 24.2279642,33.4632085 25.1405216,32.2242689 C25.9859539,31.0764622 24.5596172,28.5393591 25.6421476,27.9803375 C31.2225482,25.098604 30.1437895,22.4282229 29.8907529,21.8405384 C29.0618583,19.9154082 29.9187492,21.5773023 29.000343,19.5886386 C28.2409664,17.9443282 26.2422301,15.8444181 24.7837109,12.9569411 C23.3251918,10.0694641 25.2596343,12.0929557 20.3892172,6.52006435 C15.5188,0.947172996 18.4902406,0.708187392 15.8805987,0.470429645 C13.2709567,0.232671897 11.999955,4.96567875 13.5549471,8.04414641 Z" id="path-15"></path>
    </defs>
    <g id="personality/thoughtful" stroke="none" stroke-width="1" fill="none" fill-rule="evenodd">
        <g id="tab02-illu-icon02" transform="translate(-3.000000, 0.000000)">
            <mask id="mask-2" fill="white">
                <use xlink:href="#path-1"></use>
            </mask>
            <g id="Mask"></g>
            <g id="Group-10" mask="url(#mask-2)">
                <g transform="translate(7.000000, 3.000000)">
                    <mask id="mask-4" fill="white">
                        <use xlink:href="#path-3"></use>
                    </mask>
                    <use id="Mask" stroke="none" fill="#202637" fill-rule="evenodd" xlink:href="#path-3"></use>
                    <path d="M44.9802958,23.5810379 C41.6344749,20.7759407 37.4858967,19.4041916 36.5418814,19.366547 C23.6083929,18.8507965 17.3329384,26.6619078 16.920469,34.2023803 C16.0721951,49.7099223 22.5802391,57.9068533 30.0417656,68.847177 C31.6317529,71.1784662 36.8926244,78.9640669 41.0942922,78.7400132 C45.29596,78.5159596 70.7302057,74.8440081 80.8594047,50.7300562 C81.7681858,48.5665778 84.4299168,42.9369334 80.8567024,37.541816 C77.2834879,32.1466985 71.3789613,30.4390067 64.0202433,31.0264121 C61.9695351,31.1901087 57.0974021,32.3505788 51.4974604,37.0685188 C51.4974604,37.0685188 50.7772954,28.4411747 44.9802958,23.5810379 Z" id="Combined-Shape" stroke="none" fill="#333A4B" fill-rule="evenodd" mask="url(#mask-4)" transform="translate(49.756682, 49.043539) rotate(-16.000000) translate(-49.756682, -49.043539) "></path>
                    <g id="Group-6" stroke="none" stroke-width="1" fill="none" fill-rule="evenodd" mask="url(#mask-4)">
                        <g transform="translate(24.000000, 11.000000)" id="Group-10">
                            <g transform="translate(0.000000, 0.882143)">
                                <g id="Group-23" transform="translate(50.240924, 74.804362) rotate(-44.000000) translate(-50.240924, -74.804362) translate(30.240924, 36.404362)">
                                    <mask id="mask-6" fill="white">
                                        <use xlink:href="#path-5"></use>
                                    </mask>
                                    <use id="Mask" fill="#FFDD0F" xlink:href="#path-5"></use>
                                    <path d="M25.3607309,12.0574624 C23.0404092,14.4602259 19.4010502,13.211813 17.8555932,17.2903546 C16.3101363,21.3688962 17.4200538,21.3644403 15.5632228,26.5172501 C13.7063917,31.6700599 14.4583052,30.8914308 10.8485117,45.0269034 C7.23871827,59.1623759 9.4566819,74.667186 11.2178736,77.9943319 C12.3920014,80.2124291 7.37234778,78.2132122 -3.84108725,71.9966812 C-5.05676803,45.7049176 -5.66460843,32.5590358 -5.66460843,32.5590358 C-5.66460843,32.5590358 1.09951752,23.2269204 14.6277694,4.56268951 C23.3299583,7.95736242 26.9076121,10.4556201 25.3607309,12.0574624 Z" id="Path-3" fill="#E6BD00" mask="url(#mask-6)"></path>
                                </g>
                                <g id="Group" transform="translate(30.375760, 32.356940) rotate(8.000000) translate(-30.375760, -32.356940) translate(3.975760, 3.556940)">
                                    <g id="Group-2" transform="translate(-0.000000, -0.000000)">
                                        <g id="Group-7" transform="translate(14.400000, 0.800000)">
                                            <mask id="mask-8" fill="white">
                                                <use xlink:href="#path-7"></use>
                                            </mask>
                                            <use id="Mask" fill="#FFDD0F" transform="translate(16.047956, 16.767466) rotate(50.000000) translate(-16.047956, -16.767466) " xlink:href="#path-7"></use>
                                            <path d="M7.49263257,4.15710812 C7.55298865,5.67572469 9.07586094,9.1514513 10.419476,12.1797417 C11.1227588,13.7648273 12.2121632,17.1314371 12.8635155,18.5466824 C14.0617518,21.1501862 18.6860455,23.6987841 19.6584717,23.0852553 C21.8667379,21.6920032 25.7234443,26.1541584 25.3542983,26.9929039 C24.9851524,27.8316494 28.5116366,23.1101194 28.9970572,26.5640661 C29.4824777,30.0180128 23.7690309,30.0577279 20.3434246,29.8859333 C18.4869768,29.7928321 13.3344148,23.7340468 10.2263464,17.0182207 C8.97536848,14.315143 5.89564728,5.30703452 5.47645981,2.62053898 C5.01534203,-0.334680264 7.37278195,1.14155237 7.49263257,4.15710812 Z" id="Path-5" fill="#E6BD00" mask="url(#mask-8)" transform="translate(17.221426, 15.476060) rotate(22.000000) translate(-17.221426, -15.476060) "></path>
                                        </g>
                                        <g id="Group-5" transform="translate(4.800000, -0.000000)">
                                            <mask id="mask-10" fill="white">
                                                <use xlink:href="#path-9"></use>
                                            </mask>
                                            <use id="Mask" fill="#FFDD0F" transform="translate(16.768007, 15.950010) rotate(37.000000) translate(-16.768007, -15.950010) " xlink:href="#path-9"></use>
                                            <path d="M9.40664734,4.90311386 C9.46700343,6.42173042 10.9898757,9.89745703 12.3334907,12.9257474 C13.0367736,14.510833 14.1261779,17.8774428 14.7775303,19.2926881 C15.9757666,21.8961919 17.3831093,23.320271 18.3555356,22.7067422 C20.5638018,21.3134901 20.6796794,19.7204468 21.2587541,19.6390631 C21.8378288,19.5576795 23.6814716,20.3733694 24.1668922,23.8273162 C24.6523127,27.2812629 25.6830457,30.8037336 22.2574394,30.631939 C20.4009916,30.5388379 15.2484296,24.4800526 12.1403612,17.7642264 C10.8893833,15.0611487 7.80966206,6.05304025 7.39047459,3.36654471 C6.92935681,0.411325471 9.28679672,1.8875581 9.40664734,4.90311386 Z" id="Path-5" fill="#E6BD00" mask="url(#mask-10)" transform="translate(16.014539, 16.198288) rotate(13.000000) translate(-16.014539, -16.198288) "></path>
                                        </g>
                                        <g id="Group-9" transform="translate(0.000000, 20.000000)">
                                            <mask id="mask-12" fill="white">
                                                <use xlink:href="#path-11"></use>
                                            </mask>
                                            <use id="Mask" fill="#FFDD0F" transform="translate(14.855092, 13.046684) rotate(19.000000) translate(-14.855092, -13.046684) " xlink:href="#path-11"></use>
                                            <path d="M5.90732936,-2.48679806 C6.21284249,-1.04947177 7.4625591,2.96917176 8.80617412,5.99746217 C9.50945699,7.58254775 10.62686,10.4875309 11.2782123,11.9027762 C12.4764486,14.50628 14.1375354,15.6122056 14.262601,13.8745946 C14.7125543,7.62312389 18.100904,9.88701135 18.6799787,9.80562771 C19.2590534,9.72424406 20.1821536,12.9834575 20.6675742,16.4374042 C21.1529947,19.891351 22.1837277,23.4138217 18.7581214,23.2420271 C16.9016736,23.148926 11.7491116,17.0901406 8.64104323,10.3743145 C6.01395499,4.69777672 5.51673928,-4.32437989 5.90732936,-2.48679806 Z" id="Path-5" fill="#E6BD00" mask="url(#mask-12)" transform="translate(13.494153, 10.259329) rotate(-3.000000) translate(-13.494153, -10.259329) "></path>
                                        </g>
                                        <g id="Group-3" transform="translate(0.800000, 8.000000)">
                                            <mask id="mask-14" fill="white">
                                                <use xlink:href="#path-13"></use>
                                            </mask>
                                            <use id="Mask" fill="#FFDD0F" transform="translate(15.672145, 14.975960) rotate(31.000000) translate(-15.672145, -14.975960) " xlink:href="#path-13"></use>
                                            <path d="M8.17769379,2.6187939 C8.48320692,4.05612019 9.73292353,8.07476371 11.0765385,11.1030541 C11.7798214,12.6881397 12.8972244,15.5931229 13.5485767,17.0083681 C14.746813,19.611872 15.5605392,19.5937153 16.5329655,18.9801865 C18.7412317,17.5869345 19.4507258,17.4361268 20.0298005,17.3547432 C20.6088753,17.2733595 22.4525181,18.0890495 22.9379386,21.5429962 C23.4233592,24.9969429 24.4540921,28.5194137 21.0284858,28.347619 C19.172038,28.2545179 14.0194761,22.1957326 10.9114077,15.4799065 C8.28431941,9.80336867 7.78710371,0.781212067 8.17769379,2.6187939 Z" id="Path-5" fill="#E6BD00" mask="url(#mask-14)" transform="translate(15.764517, 15.364921) rotate(4.000000) translate(-15.764517, -15.364921) "></path>
                                        </g>
                                    </g>
                                    <g id="Group-17" transform="translate(30.803066, 33.629171) rotate(27.000000) translate(-30.803066, -33.629171) translate(15.603066, 15.229171)">
                                        <mask id="mask-16" fill="white">
                                            <use xlink:href="#path-15"></use>
                                        </mask>
                                        <use id="Path-13" fill="#FFDD0F" xlink:href="#path-15"></use>
                                        <path d="M12.8144482,35.6219674 C16.0007706,34.4027881 21.512496,35.9434565 23.2407389,32.3790449 C24.9689819,28.8146333 21.2670256,29.1979801 23.7598217,26.634205 C24.7912192,25.5734399 28.580266,23.9873493 28.8232442,22.0033654 C29.1675228,19.1922364 25.7247876,14.8478329 26.2493687,14.0007896 C27.1441783,12.5559367 35.4529185,18.2029379 31.4157901,25.7059046 C27.3786617,33.2088712 23.3074772,40.6632007 19.4793888,41.5597048 C15.6513005,42.4562089 9.62812583,36.8411466 12.8144482,35.6219674 Z" id="Path-2" fill="#E6BD00" mask="url(#mask-16)"></path>
                                        <path d="M11.3460475,-0.922326903 C11.387144,0.111699533 12.8489749,-0.158851008 13.3845827,2.11932447 C13.6355921,3.18697739 12.6236273,7.09529921 13.0523745,8.06162586 C13.7556573,9.64671144 16.0655781,12.0520021 16.7169304,13.4672473 C17.095633,14.2900847 17.3824291,15.9145006 17.7679392,17.4191041 C18.0426416,18.4912373 18.3893649,19.3769896 18.7559121,20.4376433 C19.3031486,22.0211457 20.2009893,23.3452182 20.7350349,24.2408622 C20.9296409,24.5672345 21.1934325,24.6536052 21.3758522,24.8178566 C22.8647544,26.1584703 25.9565717,26.4461364 26.857539,25.9506002 C28.4051023,25.0994333 35.2516887,23.1871984 35.6176857,23.1357608 C36.1967604,23.0543772 31.6940592,16.5860395 32.1794797,20.0399863 C32.6649003,23.493933 30.0964789,28.2077289 26.6708726,28.0359342 C25.7186778,27.9881815 23.2354953,27.3876409 20.8582634,24.3518176 C19.4333283,22.5321166 18.7601193,20.4647987 17.880872,17.867973 C17.3671176,16.3506176 15.506883,14.1681176 14.9485392,12.9616642 C14.5049793,12.0032326 11.9417584,10.7468143 11.0975042,8.59989687 C9.56069658,4.69183353 9.60043073,-0.724952526 9.32987477,-2.45889605 C8.86875698,-5.41411529 11.2261969,-3.93788266 11.3460475,-0.922326903 Z" id="Path-5" fill="#E6BD00" mask="url(#mask-16)" transform="translate(22.469693, 11.986828) rotate(13.000000) translate(-22.469693, -11.986828) "></path>
                                    </g>
                                </g>
                            </g>
                        </g>
                    </g>
                </g>
            </g>
        </g>
        <path d="M56.8035593,48.3598446 C56.1518119,47.8214001 55.3436919,47.5580899 55.1598029,47.5508639 C52.6404311,47.4518645 51.4180074,48.9512243 51.3376607,50.3986343 C51.1724216,53.3753408 52.4401525,54.9487595 53.8936164,57.0487784 C54.2033372,57.4962744 55.2281257,58.9907374 56.0465873,58.9477298 C56.8650489,58.9047222 61.8194988,58.1998831 63.7926106,53.5711577 C63.9696361,53.1558733 64.4881266,52.0752508 63.7920842,51.0396463 C63.0960419,50.0040418 61.9458729,49.6762466 60.5124354,49.7890004 C60.1129688,49.8204223 59.1639043,50.043177 58.0730668,50.9487959 C58.0730668,50.9487959 57.9327826,49.2927584 56.8035593,48.3598446 Z" id="Combined-Shape" fill="#597EFE" transform="translate(57.733973, 53.247427) rotate(-16.000000) translate(-57.733973, -53.247427) "></path>
        <path d="M29.7578419,27.6526098 C29.3094209,27.255831 28.7534109,27.0617983 28.62689,27.0564735 C26.8934893,26.983521 26.0524263,28.0883963 25.9971455,29.15499 C25.8834562,31.3485192 26.7556917,32.5079684 27.755717,34.0554682 C27.9688138,34.3852272 28.6738981,35.486494 29.2370233,35.4548018 C29.8001486,35.4231096 33.2089536,34.9037151 34.5665116,31.4928162 C34.6883103,31.186794 35.0450467,30.3904854 34.5661494,29.6273504 C34.0872521,28.8642155 33.2959025,28.6226638 32.3096561,28.7057519 C32.0348115,28.7289066 31.3818277,28.8930542 30.6312998,29.5604029 C30.6312998,29.5604029 30.5347803,28.3400721 29.7578419,27.6526098 Z" id="Combined-Shape-Copy" fill="#FFFFFF" transform="translate(30.397993, 31.254260) rotate(-16.000000) translate(-30.397993, -31.254260) "></path>
        <path d="M18.7578419,40.6526098 C18.3094209,40.255831 17.7534109,40.0617983 17.62689,40.0564735 C15.8934893,39.983521 15.0524263,41.0883963 14.9971455,42.15499 C14.8834562,44.3485192 15.7556917,45.5079684 16.755717,47.0554682 C16.9688138,47.3852272 17.6738981,48.486494 18.2370233,48.4548018 C18.8001486,48.4231096 22.2089536,47.9037151 23.5665116,44.4928162 C23.6883103,44.186794 24.0450467,43.3904854 23.5661494,42.6273504 C23.0872521,41.8642155 22.2959025,41.6226638 21.3096561,41.7057519 C21.0348115,41.7289066 20.3818277,41.8930542 19.6312998,42.5604029 C19.6312998,42.5604029 19.5347803,41.3400721 18.7578419,40.6526098 Z" id="Combined-Shape-Copy-2" fill="#A6B8F3" transform="translate(19.397993, 44.254260) rotate(-16.000000) translate(-19.397993, -44.254260) "></path>
        <path d="M31.5743059,46.9959376 C31.3292112,46.7880467 31.0253113,46.6863838 30.9561584,46.6835939 C30.0087287,46.6453706 29.5490266,47.2242667 29.5188116,47.7831051 C29.4566721,48.932398 29.9334123,49.5398879 30.4799989,50.3506957 C30.5964719,50.5234718 30.9818517,51.1004772 31.2896406,51.0838722 C31.5974296,51.0672672 33.4605896,50.795132 34.2025939,49.008002 C34.2691657,48.8476626 34.4641481,48.4304392 34.2023959,48.0305969 C33.9406437,47.6307547 33.5081136,47.5041945 32.9690581,47.5477282 C32.8188355,47.5598601 32.4619323,47.6458647 32.0517142,47.99552 C32.0517142,47.99552 31.9989593,47.3561314 31.5743059,46.9959376 Z" id="Combined-Shape-Copy-3" fill="#FFFFFF" transform="translate(31.924195, 48.883011) rotate(-16.000000) translate(-31.924195, -48.883011) "></path>
    </g>
</svg>